<svg width="800" height="800" viewBox="0 0 500 500" fill="none" xmlns="http://www.w3.org/2000/svg">
<rect width="500" height="500" fill="white"/>
<path d="M136.487 305.195L123.337 354.319H160.475L136.487 305.195Z" fill="#141850"/>
<path d="M160.475 355.978H123.338C123.139 355.977 122.943 355.913 122.766 355.791C122.589 355.669 122.437 355.492 122.322 355.277C122.207 355.061 122.133 354.812 122.105 354.55C122.077 354.288 122.097 354.021 122.163 353.772L135.313 304.73C135.39 304.44 135.527 304.183 135.708 303.99C135.889 303.796 136.107 303.674 136.338 303.636C136.578 303.585 136.825 303.629 137.047 303.761C137.269 303.894 137.457 304.11 137.588 304.382L161.575 353.507C161.696 353.757 161.764 354.046 161.772 354.343C161.78 354.641 161.728 354.935 161.621 355.196C161.513 355.458 161.355 355.676 161.162 355.828C160.97 355.98 160.75 356.06 160.525 356.061L160.475 355.978ZM125.113 352.661H158.175L136.813 308.926L125.113 352.661Z" fill="#093F68"/>
<path d="M273.438 133.142C270.366 132.206 267.17 132.28 264.125 133.357C253.498 137.569 244.406 146.811 238.575 159.33C238.079 156.263 238.218 153.076 238.977 150.107C239.737 147.137 241.088 144.495 242.888 142.463C239.392 142.54 235.97 143.815 232.954 146.163C229.939 148.511 227.431 151.852 225.675 155.863C222.788 162.613 221.6 174.405 225.463 181.023C228.863 186.827 235.075 185.766 238.575 190.393C240.75 193.279 241.525 203.661 242.675 207.658C245.6 218.09 249.063 228.24 252.25 238.539L321.7 221.39C321.7 221.39 320.538 198.487 317.95 179.762C315.363 161.038 305.55 137.57 288.975 146.957C288.04 144.441 286.679 142.244 285 140.539C281.657 136.861 277.688 134.322 273.438 133.142Z" fill="#141850"/>
<path d="M252.25 240.198C252.003 240.197 251.762 240.098 251.557 239.915C251.353 239.732 251.193 239.473 251.1 239.17C250 235.643 248.879 232.11 247.737 228.572C245.625 221.938 243.425 215.105 241.487 208.239C240.995 206.23 240.603 204.18 240.312 202.103C239.687 198.305 238.837 193.114 237.675 191.555C236.074 189.816 234.191 188.596 232.175 187.989C229.537 186.861 226.537 185.601 224.462 182.035C220.387 175.069 221.35 162.597 224.575 155.035C226.434 150.766 229.097 147.211 232.303 144.717C235.508 142.223 239.146 140.875 242.862 140.805V140.805C243.119 140.805 243.37 140.91 243.58 141.106C243.79 141.302 243.95 141.579 244.037 141.899C244.125 142.22 244.136 142.569 244.069 142.898C244.002 143.228 243.86 143.522 243.662 143.74C242.478 145.072 241.504 146.701 240.796 148.534C240.088 150.367 239.66 152.368 239.537 154.421C245.539 143.58 254.038 135.627 263.75 131.766C267.017 130.6 270.451 130.514 273.75 131.517C278.181 132.77 282.317 135.433 285.8 139.279C287.275 140.845 288.543 142.729 289.55 144.851C291.853 143.58 294.341 143.003 296.833 143.161C299.325 143.318 301.76 144.207 303.962 145.764C312.525 151.85 317.425 167.158 319.15 179.464C321.762 198.073 322.9 221.043 322.962 221.275C322.967 221.668 322.867 222.05 322.679 222.354C322.491 222.657 322.228 222.863 321.937 222.933L252.5 240.182L252.25 240.198ZM239.75 144.52C237.05 145.176 234.491 146.604 232.248 148.703C230.006 150.802 228.134 153.523 226.762 156.676C223.912 163.31 223.112 174.306 226.45 180.012C228.05 182.748 230.437 183.76 232.95 184.821C235.353 185.564 237.584 187.073 239.45 189.216C241.137 191.455 241.95 196.514 242.762 201.406C243.035 203.324 243.394 205.218 243.837 207.078C245.75 213.878 247.937 220.694 250.087 227.279C251.087 230.413 252.087 233.531 253.075 236.666L320.425 220.081C320.112 214.74 318.937 195.834 316.675 180.111C315.137 169.099 310.562 154.272 302.775 148.732C298.737 145.863 294.25 145.797 289.437 148.533C289.285 148.618 289.121 148.661 288.956 148.661C288.791 148.661 288.627 148.618 288.475 148.533C288.321 148.452 288.181 148.331 288.063 148.177C287.945 148.023 287.851 147.84 287.787 147.638C286.92 145.354 285.666 143.367 284.125 141.833C280.964 138.343 277.21 135.93 273.187 134.801V134.801C270.303 133.907 267.298 133.97 264.437 134.983C254.107 139.077 245.271 148.067 239.612 160.242C239.483 160.518 239.295 160.737 239.073 160.872C238.851 161.008 238.604 161.054 238.362 161.005C238.118 160.951 237.892 160.803 237.712 160.579C237.532 160.354 237.406 160.064 237.35 159.745C236.923 157.125 236.917 154.417 237.33 151.794C237.744 149.171 238.568 146.693 239.75 144.52V144.52Z" fill="#093F68"/>
<path d="M246.603 249.699C251.931 248.383 255.351 240.914 254.243 233.017C253.134 225.119 247.917 219.785 242.589 221.101C237.261 222.418 233.841 229.887 234.95 237.784C236.058 245.681 241.276 251.016 246.603 249.699Z" fill="#FFC9B0"/>
<path d="M245 251.658C239.675 251.658 234.837 246.069 233.75 238.191C232.5 229.401 236.4 221.042 242.387 219.566C243.86 219.212 245.373 219.28 246.824 219.766C248.275 220.252 249.631 221.146 250.8 222.386C253.265 224.997 254.939 228.699 255.515 232.813C256.091 236.928 255.531 241.18 253.937 244.792C253.184 246.504 252.162 247.982 250.942 249.126C249.721 250.271 248.33 251.055 246.862 251.426C246.249 251.587 245.625 251.665 245 251.658V251.658ZM236.187 237.578C237.162 244.56 241.737 249.303 246.387 248.175C247.508 247.883 248.568 247.275 249.497 246.394C250.427 245.513 251.203 244.379 251.775 243.067C253.048 240.155 253.496 236.736 253.037 233.424C252.579 230.113 251.245 227.128 249.275 225.006C248.382 224.058 247.348 223.372 246.24 222.994C245.132 222.617 243.977 222.556 242.85 222.817C238.212 223.961 235.225 230.595 236.212 237.578H236.187Z" fill="#093F68"/>
<path d="M284.875 273.7C306.05 268.476 320.15 229.12 316.262 201.473L311.587 205.221C311.587 205.221 295.512 187.243 292.75 165.633C292.75 165.633 288.237 179.763 269.537 185.667C249.187 192.069 236.962 189.316 236.962 189.316L242.5 232.371C246.387 259.952 263.75 278.941 284.875 273.7Z" fill="#FFC9B0"/>
<path d="M277.975 276.22C270.204 276.278 262.637 272.925 256.45 266.684C248.373 258.247 242.954 246.12 241.25 232.668L235.7 189.547C235.668 189.287 235.683 189.021 235.743 188.769C235.804 188.518 235.909 188.29 236.05 188.104C236.19 187.917 236.362 187.778 236.552 187.697C236.741 187.617 236.942 187.597 237.138 187.64C237.263 187.64 249.388 190.244 269.2 183.991C286.988 178.402 291.525 165.068 291.563 164.935C291.667 164.603 291.85 164.324 292.084 164.142C292.318 163.959 292.591 163.883 292.86 163.924C293.13 163.965 293.382 164.122 293.579 164.37C293.776 164.618 293.906 164.945 293.95 165.3C296.288 183.544 308.663 199.465 311.688 203.114L315.575 199.963C315.748 199.824 315.943 199.743 316.145 199.727C316.346 199.71 316.548 199.759 316.732 199.868C316.916 199.977 317.078 200.144 317.203 200.354C317.328 200.564 317.413 200.811 317.45 201.074C319.4 214.989 317 232.038 311.025 246.699C304.65 262.339 295.188 272.754 285.063 275.259C282.727 275.861 280.355 276.183 277.975 276.22V276.22ZM238.488 191.272L243.75 232.088C245.336 244.711 250.401 256.102 257.963 264.047C261.732 267.809 266.059 270.47 270.659 271.853C275.258 273.237 280.027 273.312 284.65 272.074V272.074C294.025 269.752 302.85 259.967 308.863 245.207C314.238 231.939 316.6 216.879 315.325 204.175L312.238 206.663C312.013 206.846 311.751 206.93 311.488 206.903C311.226 206.876 310.976 206.74 310.775 206.514C310.15 205.817 296.25 190.078 292.188 170.027C289.5 174.853 283.15 183.112 269.825 187.308C253.6 192.417 242.5 191.803 238.488 191.272V191.272Z" fill="#093F68"/>
<path d="M275.945 216.698C277.872 216.222 279.144 213.762 278.785 211.205C278.426 208.648 276.572 206.961 274.645 207.437C272.717 207.913 271.446 210.372 271.805 212.93C272.164 215.487 274.017 217.174 275.945 216.698Z" fill="#093F68"/>
<path d="M249.875 221.159C251.836 221.159 253.425 219.05 253.425 216.449C253.425 213.848 251.836 211.739 249.875 211.739C247.915 211.739 246.325 213.848 246.325 216.449C246.325 219.05 247.915 221.159 249.875 221.159Z" fill="#093F68"/>
<path d="M264.025 232.47H263.512C263.2 232.446 262.896 232.325 262.625 232.118C262.353 231.911 262.122 231.622 261.95 231.276C260.487 228.49 262.175 220.197 262.975 216.747C263.019 216.533 263.096 216.333 263.2 216.159C263.303 215.985 263.433 215.84 263.579 215.733C263.726 215.627 263.888 215.56 264.054 215.538C264.221 215.515 264.389 215.538 264.549 215.603C264.709 215.669 264.857 215.776 264.985 215.919C265.113 216.062 265.218 216.238 265.294 216.436C265.37 216.634 265.415 216.85 265.427 217.072C265.439 217.293 265.417 217.516 265.362 217.726C264.237 222.618 263.612 227.677 263.925 229.17C265.635 229.085 267.324 228.631 268.925 227.826C269.23 227.701 269.559 227.735 269.846 227.921C270.132 228.107 270.354 228.432 270.466 228.829C270.578 229.225 270.571 229.664 270.447 230.054C270.324 230.444 270.092 230.757 269.8 230.928C267.945 231.827 265.998 232.347 264.025 232.47Z" fill="#093F68"/>
<path d="M269.525 197.193C269.197 197.23 268.866 197.181 268.552 197.049C268.238 196.916 267.947 196.703 267.695 196.421C267.186 195.852 266.869 195.038 266.812 194.158C266.756 193.278 266.965 192.405 267.394 191.73C267.823 191.055 268.437 190.634 269.1 190.559L285.8 186.728C286.124 186.651 286.456 186.659 286.778 186.753C287.099 186.847 287.404 187.024 287.674 187.274C287.944 187.524 288.174 187.842 288.35 188.211C288.527 188.579 288.648 188.99 288.704 189.421C288.761 189.851 288.753 190.292 288.681 190.718C288.609 191.144 288.475 191.547 288.285 191.904C288.095 192.261 287.854 192.565 287.576 192.798C287.297 193.031 286.987 193.189 286.662 193.263L270 197.143C269.843 197.179 269.684 197.196 269.525 197.193V197.193Z" fill="#093F68"/>
<path d="M240.2 203.031C239.537 203.082 238.886 202.781 238.39 202.194C237.894 201.608 237.594 200.785 237.556 199.905C237.518 199.025 237.745 198.161 238.186 197.504C238.628 196.846 239.249 196.448 239.912 196.397L256.737 193.76C257.065 193.709 257.398 193.744 257.716 193.863C258.034 193.983 258.332 194.184 258.591 194.456C258.85 194.728 259.067 195.065 259.228 195.448C259.389 195.831 259.492 196.252 259.531 196.687C259.569 197.123 259.543 197.564 259.453 197.986C259.363 198.408 259.211 198.803 259.006 199.147C258.801 199.491 258.548 199.779 258.259 199.992C257.97 200.206 257.653 200.343 257.325 200.394L240.5 203.031H240.2Z" fill="#093F68"/>
<path d="M309.175 206.879C309.175 206.879 317.2 196.132 323.687 205.801C330.175 215.47 328 235.24 312 233.598" fill="#FFC9B0"/>
<path d="M313.887 235.356C313.25 235.356 312.637 235.356 311.912 235.24C311.748 235.223 311.588 235.164 311.441 235.066C311.294 234.967 311.163 234.832 311.056 234.666C310.839 234.332 310.731 233.897 310.756 233.457C310.781 233.017 310.936 232.608 311.188 232.321C311.44 232.033 311.768 231.89 312.1 231.923C318.212 232.553 322.712 229.899 324.75 224.443C325.721 221.57 326.05 218.388 325.698 215.274C325.346 212.161 324.327 209.247 322.762 206.879C322.147 205.856 321.376 205.017 320.499 204.416C319.622 203.816 318.66 203.469 317.675 203.397C313.712 203.231 310.087 207.957 310.062 208.007C309.946 208.163 309.808 208.286 309.656 208.37C309.503 208.454 309.34 208.498 309.175 208.498C309.01 208.498 308.846 208.454 308.694 208.37C308.542 208.286 308.404 208.163 308.287 208.007C308.055 207.697 307.924 207.276 307.924 206.838C307.924 206.4 308.055 205.98 308.287 205.669C308.462 205.437 312.712 199.93 317.737 200.08C319.065 200.157 320.365 200.606 321.552 201.398C322.739 202.19 323.786 203.306 324.625 204.674C326.532 207.521 327.771 211.044 328.191 214.812C328.61 218.58 328.192 222.429 326.987 225.886C325.637 229.551 322.162 235.356 313.887 235.356Z" fill="#093F68"/>
<path d="M270.1 224.078C268.906 224.07 267.754 223.484 266.862 222.431C265.969 221.378 265.396 219.929 265.25 218.356L264 204.939C263.961 204.508 264.05 204.073 264.25 203.728C264.351 203.555 264.477 203.41 264.621 203.302C264.765 203.194 264.924 203.125 265.088 203.098L288.75 199.333C288.914 199.308 289.08 199.325 289.239 199.385C289.398 199.445 289.546 199.545 289.675 199.682C289.803 199.818 289.91 199.986 289.99 200.176C290.069 200.367 290.119 200.576 290.138 200.793L291.388 214.194C291.464 215.042 291.414 215.902 291.24 216.725C291.066 217.548 290.772 218.317 290.374 218.988C289.975 219.66 289.481 220.221 288.92 220.639C288.358 221.057 287.74 221.324 287.1 221.425L270.788 224.028C270.56 224.067 270.33 224.083 270.1 224.078V224.078ZM266.663 206.233L267.738 217.991C267.813 218.829 268.135 219.593 268.634 220.115C269.134 220.638 269.769 220.876 270.4 220.778L286.713 218.174C287.345 218.07 287.921 217.639 288.314 216.974C288.708 216.309 288.887 215.464 288.813 214.625L287.75 202.866L266.663 206.233Z" fill="#093F68"/>
<path d="M240.85 228.755C239.653 228.754 238.497 228.172 237.601 227.117C236.705 226.063 236.131 224.61 235.988 223.033L234.738 209.616C234.698 209.184 234.788 208.75 234.988 208.405C235.089 208.232 235.215 208.087 235.359 207.979C235.503 207.87 235.661 207.801 235.825 207.775L259.388 204.01C259.716 203.959 260.046 204.081 260.306 204.352C260.566 204.622 260.734 205.018 260.775 205.453L262.025 218.87C262.18 220.581 261.817 222.304 261.016 223.66C260.214 225.016 259.039 225.894 257.75 226.101L241.5 228.705L240.85 228.755ZM237.4 210.909L238.475 222.668C238.509 223.084 238.605 223.487 238.758 223.853C238.911 224.218 239.118 224.54 239.366 224.798C239.614 225.056 239.899 225.246 240.203 225.355C240.507 225.465 240.825 225.493 241.138 225.438L257.5 222.801C258.131 222.701 258.707 222.273 259.101 221.611C259.495 220.949 259.674 220.106 259.6 219.268L258.525 207.509L237.4 210.909Z" fill="#093F68"/>
<path d="M289.3 207.775C288.969 207.801 288.643 207.652 288.394 207.359C288.146 207.067 287.995 206.655 287.975 206.216C287.955 205.776 288.068 205.343 288.288 205.014C288.509 204.684 288.819 204.484 289.15 204.458L305.125 201.904C305.457 201.853 305.79 201.979 306.051 202.254C306.312 202.53 306.481 202.931 306.519 203.371C306.557 203.811 306.462 204.253 306.254 204.6C306.047 204.947 305.744 205.17 305.413 205.221L289.45 207.775H289.3Z" fill="#093F68"/>
<path d="M269.025 249.054C266.476 249.014 263.946 248.455 261.525 247.396C261.368 247.33 261.223 247.225 261.097 247.085C260.971 246.945 260.867 246.773 260.791 246.58C260.715 246.387 260.668 246.176 260.654 245.958C260.639 245.741 260.657 245.522 260.706 245.314C260.756 245.106 260.835 244.913 260.941 244.746C261.046 244.579 261.176 244.441 261.321 244.34C261.467 244.239 261.626 244.177 261.79 244.158C261.953 244.139 262.118 244.163 262.275 244.228C265.706 245.844 269.409 246.157 272.967 245.132C276.525 244.106 279.796 241.783 282.413 238.423C285.149 235.074 287.395 231.081 289.038 226.648C289.172 226.246 289.421 225.93 289.731 225.772C290.04 225.613 290.384 225.624 290.688 225.802C290.991 225.98 291.229 226.311 291.348 226.722C291.468 227.132 291.46 227.589 291.325 227.991C291.25 228.306 284.138 249.054 269.025 249.054Z" fill="#093F68"/>
<path d="M260.2 214.293C259.887 214.295 259.585 214.141 259.353 213.861C259.122 213.582 258.978 213.197 258.95 212.784C258.934 212.566 258.952 212.346 259 212.137C259.049 211.928 259.129 211.734 259.235 211.566C259.341 211.397 259.47 211.259 259.617 211.158C259.763 211.056 259.923 210.995 260.087 210.976L265.812 210.329C266.14 210.292 266.466 210.428 266.718 210.708C266.971 210.987 267.131 211.387 267.162 211.822C267.178 212.04 267.161 212.26 267.112 212.469C267.063 212.678 266.983 212.872 266.877 213.04C266.772 213.208 266.642 213.347 266.495 213.448C266.349 213.549 266.189 213.611 266.025 213.63L260.3 214.293H260.2Z" fill="#093F68"/>
<path d="M221.738 237.396H122.5C121.844 237.394 121.197 237.606 120.617 238.013C120.036 238.419 119.539 239.008 119.17 239.727C118.8 240.447 118.568 241.276 118.495 242.141C118.422 243.007 118.51 243.883 118.75 244.693L145.588 336.391H253.5L225.488 240.762C225.188 239.768 224.67 238.916 224.002 238.316C223.333 237.716 222.545 237.395 221.738 237.396V237.396Z" fill="#141850"/>
<path d="M253.487 338.05H145.612C145.361 338.049 145.115 337.947 144.907 337.758C144.7 337.568 144.541 337.3 144.45 336.989L117.612 245.307C117.3 244.247 117.187 243.103 117.282 241.972C117.378 240.842 117.679 239.759 118.16 238.817C118.641 237.875 119.287 237.103 120.043 236.566C120.799 236.03 121.643 235.745 122.5 235.737H221.712C222.772 235.731 223.809 236.151 224.686 236.941C225.563 237.732 226.239 238.856 226.625 240.166L254.637 335.794C254.709 336.045 254.734 336.314 254.71 336.58C254.686 336.845 254.614 337.1 254.5 337.32C254.388 337.541 254.237 337.722 254.061 337.849C253.885 337.976 253.688 338.045 253.487 338.05V338.05ZM146.475 334.733H251.662L224.325 241.376C224.119 240.689 223.762 240.101 223.301 239.686C222.839 239.272 222.295 239.052 221.737 239.054H122.5C122.052 239.057 121.612 239.202 121.216 239.479C120.82 239.756 120.481 240.156 120.226 240.645C119.972 241.134 119.811 241.697 119.756 242.286C119.702 242.876 119.755 243.474 119.912 244.03L146.475 334.733Z" fill="#093F68"/>
<path d="M217.825 246.252L128.275 246.119L153.587 331.134L242.825 331.25L217.825 246.252Z" fill="white"/>
<path d="M242.825 332.925L153.587 332.809C153.337 332.809 153.092 332.71 152.885 332.524C152.678 332.337 152.518 332.073 152.425 331.764L127.112 246.683C127.037 246.432 127.009 246.16 127.031 245.891C127.052 245.623 127.123 245.365 127.237 245.141C127.352 244.916 127.507 244.732 127.688 244.604C127.868 244.477 128.07 244.411 128.275 244.411V244.411L217.825 244.527C218.077 244.528 218.322 244.63 218.53 244.819C218.737 245.009 218.897 245.277 218.987 245.589L243.987 330.603C244.061 330.856 244.087 331.128 244.063 331.397C244.039 331.666 243.966 331.923 243.85 332.146C243.741 332.378 243.59 332.57 243.411 332.706C243.232 332.842 243.031 332.917 242.825 332.925ZM154.437 329.492L241 329.608L216.975 247.911L130.112 247.794L154.437 329.492Z" fill="#093F68"/>
<path d="M208 270.797C206.612 270.797 205.256 270.25 204.103 269.225C202.951 268.2 202.054 266.743 201.526 265.041C200.999 263.338 200.864 261.465 201.141 259.661C201.417 257.857 202.091 256.202 203.077 254.907C204.064 253.612 205.318 252.736 206.681 252.389C208.044 252.042 209.454 252.24 210.731 252.958C212.009 253.676 213.097 254.882 213.857 256.423C214.617 257.963 215.015 259.768 215 261.609C214.971 264.051 214.221 266.381 212.913 268.098C211.604 269.816 209.841 270.785 208 270.797V270.797ZM208 255.556C207.113 255.556 206.245 255.904 205.507 256.557C204.768 257.209 204.191 258.137 203.849 259.223C203.507 260.309 203.414 261.505 203.583 262.661C203.751 263.817 204.174 264.881 204.797 265.719C205.42 266.557 206.216 267.132 207.084 267.372C207.953 267.612 208.856 267.505 209.679 267.066C210.503 266.627 211.21 265.874 211.712 264.903C212.213 263.933 212.488 262.786 212.5 261.609C212.507 260.015 212.037 258.483 211.193 257.348C210.35 256.214 209.201 255.569 208 255.556Z" fill="#DFEAEF"/>
<path d="M213.75 282.639C213.544 282.638 213.343 282.569 213.162 282.44L180.887 259.221L157.837 282.241C157.706 282.373 157.556 282.469 157.397 282.524C157.238 282.579 157.072 282.592 156.909 282.562C156.745 282.532 156.588 282.46 156.446 282.349C156.304 282.238 156.18 282.092 156.081 281.918C155.982 281.743 155.909 281.545 155.868 281.334C155.826 281.122 155.816 280.902 155.839 280.686C155.862 280.469 155.916 280.261 156 280.072C156.083 279.884 156.193 279.719 156.325 279.587L180.075 255.921C180.266 255.729 180.496 255.614 180.735 255.591C180.974 255.567 181.214 255.636 181.425 255.788L214.4 279.455C214.645 279.63 214.839 279.91 214.951 280.249C215.063 280.587 215.086 280.966 215.017 281.325C214.948 281.683 214.791 282 214.57 282.227C214.35 282.453 214.078 282.575 213.8 282.573L213.75 282.639Z" fill="#DFEAEF"/>
<path d="M355.25 354.319H118.675C116.238 354.319 114.263 356.94 114.263 360.174V363.905C114.263 367.139 116.238 369.76 118.675 369.76H355.25C357.687 369.76 359.663 367.139 359.663 363.905V360.174C359.663 356.94 357.687 354.319 355.25 354.319Z" fill="#093F68"/>
<path d="M355.25 371.419H118.75C117.247 371.419 115.806 370.628 114.742 369.219C113.678 367.811 113.079 365.9 113.075 363.906V360.191C113.078 358.195 113.677 356.282 114.741 354.871C115.805 353.46 117.246 352.666 118.75 352.661H355.25C356.754 352.666 358.196 353.46 359.259 354.871C360.323 356.282 360.922 358.195 360.925 360.191V363.906C360.922 365.9 360.323 367.811 359.259 369.219C358.195 370.628 356.753 371.419 355.25 371.419V371.419ZM118.75 355.978C117.908 355.978 117.101 356.422 116.505 357.212C115.91 358.002 115.575 359.073 115.575 360.191V363.906C115.579 365.02 115.914 366.087 116.51 366.874C117.105 367.66 117.91 368.102 118.75 368.102H355.25C356.09 368.102 356.896 367.66 357.491 366.874C358.086 366.087 358.422 365.02 358.425 363.906V360.191C358.425 359.638 358.343 359.09 358.184 358.579C358.024 358.068 357.79 357.603 357.495 357.212C357.201 356.821 356.85 356.511 356.465 356.299C356.08 356.087 355.667 355.978 355.25 355.978H118.75Z" fill="#093F68"/>
<path d="M305.25 371.817C304.919 371.817 304.601 371.642 304.366 371.331C304.132 371.02 304 370.598 304 370.158V300.22C304 299.78 304.132 299.358 304.366 299.047C304.601 298.736 304.919 298.561 305.25 298.561C305.582 298.561 305.9 298.736 306.134 299.047C306.369 299.358 306.5 299.78 306.5 300.22V370.158C306.5 370.598 306.369 371.02 306.134 371.331C305.9 371.642 305.582 371.817 305.25 371.817Z" fill="#093F68"/>
<path d="M195.638 282.357L190.45 292.955L188.85 302.044L189.513 302.707L195.2 296.936L200.775 286.885L195.638 282.357Z" fill="#093F68"/>
<path d="M189.513 304.366C189.242 304.366 188.979 304.249 188.763 304.034L188.1 303.371C187.913 303.18 187.77 302.923 187.689 302.63C187.607 302.337 187.589 302.018 187.638 301.712L189.225 292.624C189.263 292.436 189.322 292.257 189.4 292.093L194.588 281.495C194.678 281.309 194.795 281.148 194.932 281.023C195.07 280.898 195.224 280.81 195.388 280.765C195.713 280.68 196.05 280.77 196.325 281.014L201.463 285.542C201.604 285.666 201.725 285.828 201.818 286.016C201.911 286.205 201.974 286.417 202.003 286.638C202.033 286.86 202.027 287.088 201.988 287.307C201.949 287.526 201.877 287.733 201.775 287.913L196.25 297.931L196 298.262L190.3 304.034C190.074 304.26 189.796 304.377 189.513 304.366V304.366ZM191.613 293.619L190.575 299.54L194.325 295.775L199.013 287.316L196.025 284.663L191.613 293.619Z" fill="#093F68"/>
<path d="M218.6 282.059C218.6 282.059 219.075 267.282 214.85 265.723C210.625 264.164 201.95 261.046 199.6 265.723C197.25 270.4 191.388 279.455 193.025 284.58C194.663 289.704 210.625 300.866 210.625 300.866L229.275 330.719L249.875 300.302L218.6 282.059Z" fill="#FFC9B0"/>
<path d="M229.275 332.295C229.098 332.288 228.924 332.232 228.764 332.129C228.605 332.026 228.464 331.879 228.35 331.698L209.85 302.177C206.675 299.938 193.6 290.484 191.9 285.227C190.2 279.97 194.238 272.855 197.138 267.531C197.688 266.519 198.188 265.59 198.588 264.794C201.475 259.056 210.75 262.472 215.213 264.131C219.675 265.789 219.95 276.802 219.9 280.998L250.4 298.694C250.583 298.799 250.744 298.961 250.871 299.166C250.997 299.371 251.084 299.613 251.125 299.872C251.168 300.128 251.164 300.393 251.114 300.647C251.064 300.901 250.969 301.135 250.838 301.331L230.238 331.731C230.118 331.912 229.97 332.057 229.804 332.154C229.637 332.251 229.457 332.3 229.275 332.295ZM204.538 264.927C202.763 264.927 201.288 265.375 200.638 266.586C200.225 267.415 199.7 268.377 199.138 269.422C196.875 273.568 193.1 280.517 194.138 283.884C195.175 287.25 205.163 295.128 211.175 299.341C211.316 299.451 211.443 299.591 211.55 299.755L229.275 328.049L247.75 300.767L218.063 283.535C217.823 283.398 217.621 283.164 217.487 282.866C217.352 282.569 217.291 282.223 217.313 281.877C217.488 276.288 216.725 268.028 214.475 267.199C211.242 265.925 207.906 265.163 204.538 264.927V264.927Z" fill="#093F68"/>
<path d="M208.975 256.186L197.088 279.853C197.088 279.853 198.988 284.049 202 283.817L213.75 259.951C213.75 259.951 211 254.561 208.975 256.186Z" fill="#093F68"/>
<path d="M201.75 285.409C198.225 285.409 196.113 280.832 196.013 280.616C195.886 280.351 195.819 280.043 195.819 279.729C195.819 279.415 195.886 279.107 196.013 278.841L207.9 255.274C207.993 255.065 208.127 254.893 208.288 254.777C211.238 252.388 214.45 258.392 214.8 259.072C214.94 259.346 215.015 259.67 215.015 260.001C215.015 260.332 214.94 260.655 214.8 260.93L202.988 284.646C202.882 284.861 202.74 285.04 202.573 285.17C202.406 285.299 202.218 285.375 202.025 285.392L201.75 285.409ZM198.613 279.72C199.286 280.897 200.251 281.72 201.338 282.042L212.275 260.084C211.438 258.707 210.375 257.546 209.775 257.546L198.613 279.72Z" fill="#093F68"/>
<path d="M187.588 306.853C187.338 306.854 187.095 306.756 186.888 306.571C186.616 306.325 186.428 305.947 186.365 305.519C186.301 305.09 186.368 304.646 186.55 304.282L189.05 299.307C189.142 299.126 189.26 298.971 189.397 298.851C189.534 298.731 189.688 298.647 189.849 298.606C190.01 298.564 190.176 298.565 190.337 298.609C190.498 298.652 190.651 298.737 190.788 298.859C190.924 298.981 191.041 299.138 191.131 299.319C191.222 299.501 191.285 299.705 191.316 299.919C191.348 300.133 191.347 300.353 191.314 300.567C191.281 300.781 191.217 300.984 191.125 301.165L188.625 306.14C188.509 306.362 188.354 306.543 188.173 306.667C187.992 306.792 187.791 306.855 187.588 306.853Z" fill="#093F68"/>
<path d="M265.938 277.232C265.938 277.232 267.913 265.092 272.35 261.526C276.788 257.96 303.775 252.836 309.175 258.972C312.5 263.05 314.586 268.601 315.038 274.579L265.938 277.232Z" fill="white"/>
<path d="M265.937 278.891C265.755 278.893 265.574 278.843 265.408 278.742C265.241 278.642 265.094 278.495 264.975 278.311C264.852 278.115 264.764 277.885 264.718 277.638C264.673 277.391 264.671 277.133 264.712 276.884C264.8 276.37 266.862 264.014 271.7 260.1C276.537 256.186 304.087 251.028 309.987 257.712C313.551 262.087 315.776 268.05 316.237 274.463C316.248 274.682 316.226 274.902 316.173 275.11C316.119 275.318 316.035 275.509 315.925 275.674C315.813 275.842 315.677 275.979 315.525 276.076C315.372 276.173 315.206 276.228 315.037 276.237L265.937 278.891V278.891ZM298.125 257.795C288.65 257.795 275.987 260.531 273 262.936C270.3 265.109 268.425 271.527 267.562 275.491L313.6 272.987C312.964 268.085 311.122 263.6 308.362 260.233C306.812 258.475 302.862 257.795 298.125 257.795Z" fill="#093F68"/>
<path d="M336.75 370.158L323.75 276.536C323.087 275.491 322.712 274.878 322.712 274.878C320.317 271.823 317.123 270.117 313.8 270.118H263.9C262.537 270.118 257.512 269.255 249.462 278.211C237.837 291.164 221.337 307.434 212.65 318.479L220.075 368.234C221.537 368.699 245.35 354.253 245.35 354.253L247.7 370.092L336.75 370.158Z" fill="white"/>
<path d="M336.75 371.817H247.7C247.407 371.825 247.122 371.696 246.894 371.454C246.665 371.211 246.508 370.87 246.45 370.49L244.4 356.708C221.6 370.49 220.262 369.976 219.762 369.976C219.529 369.902 219.317 369.741 219.15 369.512C218.984 369.282 218.871 368.994 218.825 368.682L211.4 318.927C211.361 318.656 211.373 318.375 211.436 318.112C211.5 317.848 211.612 317.61 211.762 317.418C217.225 310.469 225.85 301.38 234.175 292.541C239.175 287.3 244.287 281.876 248.637 277.017C256.5 268.277 261.637 268.476 263.575 268.542H313.8C317.445 268.537 320.95 270.41 323.575 273.766C323.65 273.866 324.037 274.446 324.7 275.425C324.84 275.643 324.934 275.906 324.975 276.188L337.962 369.86C337.996 370.101 337.988 370.349 337.94 370.586C337.893 370.823 337.806 371.044 337.686 371.231C337.567 371.418 337.417 371.568 337.249 371.669C337.08 371.77 336.897 371.821 336.712 371.817H336.75ZM248.725 368.5H335.25L322.6 277.282L321.8 276.039C319.646 273.333 316.791 271.831 313.825 271.843H263.537C261.862 271.843 257.4 271.61 250.262 279.555C245.887 284.431 240.737 289.854 235.75 295.111C227.712 303.586 219.412 312.36 214.012 319.11L221.05 366.377C224.462 364.901 235.237 358.681 244.8 352.86C244.971 352.758 245.158 352.709 245.346 352.716C245.534 352.723 245.719 352.786 245.886 352.901C246.053 353.016 246.198 353.179 246.311 353.379C246.424 353.579 246.501 353.809 246.537 354.054L248.725 368.5Z" fill="#093F68"/>
<path d="M292.3 279.338H337C338.992 279.277 340.97 279.791 342.797 280.844C344.624 281.898 346.257 283.465 347.583 285.438C348.909 287.412 349.895 289.744 350.474 292.273C351.054 294.802 351.212 297.468 350.938 300.086L345.2 370.158H269.225L275 300.086C275.534 294.453 277.574 289.261 280.749 285.454C283.923 281.646 288.022 279.477 292.3 279.338V279.338Z" fill="#093F68"/>
<path d="M345.2 371.816H269.225C269.051 371.816 268.878 371.767 268.719 371.673C268.56 371.578 268.417 371.441 268.3 371.269C268.184 371.097 268.096 370.894 268.042 370.674C267.988 370.454 267.97 370.222 267.988 369.992L273.75 299.904C274.329 293.863 276.522 288.298 279.931 284.221C283.339 280.143 287.737 277.822 292.325 277.68H337C339.166 277.62 341.316 278.184 343.302 279.332C345.288 280.48 347.063 282.185 348.505 284.33C349.947 286.475 351.022 289.009 351.655 291.757C352.289 294.506 352.466 297.404 352.175 300.252L346.438 370.34C346.404 370.745 346.259 371.119 346.031 371.391C345.803 371.663 345.507 371.815 345.2 371.816ZM270.625 368.499H344.075L349.688 299.904C349.942 297.518 349.802 295.088 349.277 292.781C348.752 290.475 347.855 288.348 346.647 286.548C345.439 284.749 343.951 283.32 342.285 282.361C340.619 281.403 338.815 280.937 337 280.997H292.3C288.331 281.13 284.53 283.146 281.586 286.678C278.641 290.211 276.748 295.027 276.25 300.252L270.625 368.499Z" fill="#093F68"/>
<path d="M299.137 279.338H343.85C345.841 279.28 347.817 279.795 349.643 280.85C351.469 281.904 353.1 283.472 354.424 285.445C355.749 287.418 356.734 289.749 357.312 292.277C357.891 294.805 358.049 297.469 357.775 300.086L352.037 370.158H276.075L281.812 300.086C282.348 294.448 284.391 289.251 287.571 285.443C290.75 281.635 294.855 279.469 299.137 279.338V279.338Z" fill="#F56132"/>
<path d="M352.037 371.816H276.075C275.9 371.816 275.728 371.767 275.569 371.673C275.409 371.578 275.267 371.441 275.15 371.269C275.034 371.097 274.946 370.894 274.892 370.674C274.838 370.455 274.82 370.222 274.837 369.992L280.575 299.904C281.151 293.865 283.342 288.3 286.748 284.222C290.154 280.144 294.551 277.823 299.137 277.68H343.85C346.004 277.64 348.141 278.211 350.115 279.355C352.09 280.499 353.858 282.19 355.3 284.314C356.746 286.472 357.829 289.014 358.475 291.771C359.122 294.528 359.318 297.437 359.05 300.302L353.312 370.39C353.269 370.794 353.116 371.163 352.88 371.427C352.645 371.69 352.345 371.829 352.037 371.816ZM277.462 368.499H350.925L356.537 299.904C356.769 297.504 356.612 295.066 356.077 292.752C355.543 290.439 354.643 288.303 353.437 286.487C352.225 284.72 350.743 283.316 349.09 282.37C347.437 281.423 345.65 280.955 343.85 280.997H299.137C295.163 281.122 291.354 283.133 288.402 286.666C285.45 290.199 283.551 295.02 283.05 300.252L277.462 368.499Z" fill="#093F68"/>
<path d="M212.65 318.496L160.475 326.656C160.475 326.656 148.1 310.635 145.475 311.249C142.85 311.862 145.65 323.853 145.65 323.853C145.65 323.853 136.388 315.561 134.75 322.692C133.113 329.824 133.5 343.158 135.8 347.205C138.1 351.252 147.663 352.844 163.3 351.65L218.613 357.487L212.65 318.496Z" fill="#FFC9B0"/>
<path d="M218.6 359.145H218.5L163.275 353.324C147.025 354.551 137.525 352.843 134.85 348.232C132.175 343.622 131.875 329.69 133.6 322.227C133.762 321.387 134.074 320.612 134.509 319.965C134.944 319.318 135.49 318.82 136.1 318.512C138.375 317.434 141.475 318.977 143.675 320.436C143.138 317.219 142.75 313.122 143.675 311.099C143.841 310.72 144.067 310.394 144.336 310.142C144.606 309.89 144.914 309.719 145.238 309.639C147.963 308.976 156.013 318.695 160.875 324.931L212.5 316.837C212.811 316.792 213.124 316.903 213.376 317.149C213.628 317.394 213.802 317.757 213.863 318.164L219.813 357.155C219.851 357.406 219.845 357.666 219.795 357.913C219.745 358.16 219.653 358.389 219.525 358.581C219.41 358.756 219.267 358.897 219.108 358.994C218.949 359.091 218.776 359.143 218.6 359.145ZM163.288 349.99H163.388L217.05 355.646L211.663 320.32L160.625 328.314C160.439 328.343 160.25 328.317 160.073 328.237C159.896 328.156 159.734 328.024 159.6 327.849C154.263 320.934 147.613 313.437 145.85 312.923C145.413 314.084 145.85 318.91 146.925 323.372C147.002 323.7 146.999 324.052 146.918 324.379C146.837 324.706 146.681 324.991 146.472 325.195C146.264 325.399 146.012 325.512 145.753 325.518C145.494 325.524 145.239 325.423 145.025 325.229C142.938 323.355 138.925 320.735 137.013 321.614C136.759 321.738 136.534 321.946 136.359 322.219C136.184 322.492 136.065 322.821 136.013 323.173C134.425 330.105 134.9 342.793 136.863 346.192C137.838 347.851 142.35 351.583 163.25 349.99H163.288Z" fill="#093F68"/>
<path d="M245.35 355.978C245.071 355.972 244.802 355.843 244.585 355.61C244.368 355.378 244.215 355.056 244.152 354.696C244.089 354.335 244.118 353.957 244.236 353.622C244.353 353.286 244.552 353.012 244.8 352.843L262.65 341.217C262.798 341.112 262.959 341.048 263.126 341.027C263.293 341.007 263.461 341.031 263.62 341.099C263.78 341.166 263.928 341.276 264.055 341.42C264.182 341.565 264.286 341.742 264.36 341.941C264.435 342.139 264.478 342.356 264.488 342.578C264.499 342.8 264.475 343.022 264.419 343.231C264.364 343.441 264.277 343.633 264.164 343.797C264.051 343.961 263.915 344.093 263.763 344.186L245.912 355.895C245.732 355.979 245.54 356.008 245.35 355.978Z" fill="#093F68"/>
<path d="M159.525 310.187C159.252 310.205 158.983 310.105 158.757 309.902C158.531 309.698 158.362 309.402 158.275 309.059L145.612 259.503C145.547 259.293 145.514 259.068 145.517 258.84C145.519 258.613 145.557 258.389 145.628 258.182C145.698 257.975 145.8 257.79 145.927 257.637C146.054 257.484 146.203 257.368 146.366 257.295C146.528 257.222 146.7 257.194 146.87 257.213C147.041 257.232 147.207 257.297 147.358 257.405C147.509 257.512 147.641 257.66 147.748 257.838C147.854 258.017 147.931 258.222 147.975 258.442L160.35 306.82L185.887 305.559C186.219 305.559 186.537 305.734 186.771 306.045C187.006 306.356 187.137 306.778 187.137 307.218C187.137 307.658 187.006 308.08 186.771 308.391C186.537 308.702 186.219 308.876 185.887 308.876L159.425 310.187H159.525Z" fill="#DFEAEF"/>
<path d="M169.1 304.365C168.846 304.368 168.598 304.267 168.388 304.078C168.178 303.888 168.017 303.618 167.925 303.304L162.125 282.954C162.008 282.543 162.018 282.086 162.154 281.685C162.29 281.284 162.54 280.971 162.85 280.815C163.16 280.658 163.504 280.672 163.807 280.852C164.109 281.033 164.345 281.365 164.463 281.776L170.263 302.126C170.321 302.33 170.349 302.547 170.344 302.764C170.339 302.982 170.302 303.197 170.234 303.395C170.167 303.594 170.071 303.773 169.951 303.922C169.832 304.072 169.691 304.188 169.538 304.266C169.397 304.331 169.249 304.365 169.1 304.365Z" fill="#DFEAEF"/>
<path d="M169.1 324.798H160.475V351.019H169.1V324.798Z" fill="#68E1FD"/>
<path d="M169.1 352.678H160.475C160.144 352.678 159.826 352.503 159.591 352.192C159.357 351.881 159.225 351.459 159.225 351.019V324.799C159.225 324.359 159.357 323.937 159.591 323.626C159.826 323.315 160.144 323.14 160.475 323.14H169.1C169.432 323.14 169.75 323.315 169.984 323.626C170.218 323.937 170.35 324.359 170.35 324.799V351.019C170.35 351.459 170.218 351.881 169.984 352.192C169.75 352.503 169.432 352.678 169.1 352.678ZM161.725 349.361H167.85V326.457H161.725V349.361Z" fill="#093F68"/>
<path d="M164.788 343.854C167.411 343.854 169.538 341.032 169.538 337.552C169.538 334.071 167.411 331.25 164.788 331.25C162.164 331.25 160.038 334.071 160.038 337.552C160.038 341.032 162.164 343.854 164.788 343.854Z" fill="white"/>
<path d="M164.788 345.513C163.601 345.513 162.441 345.046 161.454 344.171C160.467 343.296 159.698 342.053 159.244 340.599C158.79 339.144 158.671 337.543 158.903 335.999C159.134 334.455 159.706 333.036 160.545 331.923C161.384 330.81 162.453 330.051 163.617 329.744C164.781 329.437 165.987 329.595 167.084 330.197C168.18 330.8 169.117 331.82 169.776 333.129C170.436 334.438 170.788 335.978 170.788 337.552C170.788 339.663 170.155 341.688 169.03 343.181C167.905 344.674 166.379 345.513 164.788 345.513V345.513ZM164.788 332.908C164.095 332.908 163.419 333.181 162.843 333.691C162.268 334.201 161.819 334.926 161.554 335.775C161.289 336.624 161.22 337.557 161.355 338.458C161.49 339.359 161.823 340.186 162.313 340.836C162.802 341.485 163.426 341.927 164.105 342.107C164.784 342.286 165.487 342.194 166.127 341.842C166.767 341.491 167.313 340.896 167.698 340.132C168.082 339.368 168.288 338.471 168.288 337.552C168.284 336.323 167.914 335.146 167.258 334.279C166.602 333.412 165.714 332.925 164.788 332.925V332.908Z" fill="#093F68"/>
<path d="M230.2 314.681C229.456 314.685 228.714 314.579 227.987 314.366C225.229 313.5 222.816 311.292 221.225 308.18C221.049 307.806 220.993 307.355 221.068 306.926C221.143 306.497 221.343 306.124 221.625 305.891C221.907 305.658 222.247 305.583 222.57 305.683C222.894 305.782 223.174 306.048 223.35 306.422C224.59 308.784 226.44 310.46 228.55 311.132C231.05 311.862 233.9 310.867 236.925 308.213C238.019 307.37 238.97 306.234 239.716 304.878C240.463 303.522 240.989 301.975 241.262 300.335C242.012 294.862 239.225 289.704 239.187 289.655C238.99 289.298 238.908 288.853 238.958 288.416C239.008 287.979 239.188 287.586 239.456 287.324C239.725 287.063 240.06 286.953 240.39 287.02C240.719 287.087 241.015 287.325 241.212 287.681C241.35 287.946 244.65 294 243.712 300.949C243.388 303.043 242.737 305.024 241.801 306.764C240.864 308.504 239.663 309.964 238.275 311.049C235.913 313.292 233.103 314.556 230.2 314.681V314.681Z" fill="#093F68"/>
<path d="M229.275 363.706C229.012 363.706 228.755 363.595 228.542 363.39C228.328 363.184 228.17 362.895 228.088 362.562L216 313.554C215.898 313.136 215.924 312.681 216.074 312.289C216.224 311.897 216.486 311.6 216.8 311.464C217.115 311.328 217.458 311.363 217.753 311.562C218.049 311.761 218.272 312.108 218.375 312.525L230.463 361.534C230.566 361.95 230.541 362.402 230.394 362.794C230.246 363.185 229.988 363.484 229.675 363.624C229.545 363.675 229.411 363.703 229.275 363.706Z" fill="#093F68"/>
<path d="M200.775 206.514H134.15C133.819 206.514 133.501 206.339 133.267 206.028C133.032 205.717 132.9 205.295 132.9 204.856V132.495C132.9 132.056 133.032 131.634 133.267 131.323C133.501 131.012 133.819 130.837 134.15 130.837H200.775C201.107 130.837 201.425 131.012 201.659 131.323C201.894 131.634 202.025 132.056 202.025 132.495V204.856C202.025 205.295 201.894 205.717 201.659 206.028C201.425 206.339 201.107 206.514 200.775 206.514ZM135.4 203.197H199.525V134.154H135.4V203.197Z" fill="#DFEAEF"/>
<path d="M176.25 184.788H148.75C148.418 184.788 148.101 184.613 147.866 184.302C147.632 183.991 147.5 183.569 147.5 183.129V146.642C147.5 146.203 147.632 145.781 147.866 145.47C148.101 145.159 148.418 144.984 148.75 144.984H176.25C176.582 144.984 176.899 145.159 177.134 145.47C177.368 145.781 177.5 146.203 177.5 146.642V183.129C177.5 183.569 177.368 183.991 177.134 184.302C176.899 184.613 176.582 184.788 176.25 184.788ZM150 181.471H175V148.301H150V181.471Z" fill="#DFEAEF"/>
<path d="M175.838 195.535C172.593 195.538 169.42 194.265 166.72 191.877C164.02 189.488 161.914 186.091 160.669 182.115C159.424 178.139 159.095 173.763 159.724 169.539C160.353 165.315 161.911 161.434 164.202 158.384C166.493 155.335 169.414 153.256 172.596 152.409C175.777 151.561 179.077 151.985 182.077 153.625C185.077 155.265 187.644 158.048 189.452 161.623C191.261 165.198 192.23 169.404 192.238 173.709C192.242 176.572 191.822 179.407 191 182.054C190.178 184.701 188.971 187.106 187.448 189.134C185.925 191.161 184.115 192.769 182.123 193.868C180.131 194.966 177.995 195.533 175.838 195.535V195.535ZM175.838 155.316C173.083 155.313 170.39 156.395 168.1 158.424C165.809 160.453 164.024 163.339 162.97 166.715C161.917 170.092 161.643 173.807 162.182 177.391C162.722 180.975 164.051 184.265 166.001 186.846C167.951 189.426 170.435 191.181 173.137 191.887C175.839 192.593 178.639 192.219 181.181 190.812C183.723 189.405 185.893 187.029 187.416 183.984C188.94 180.94 189.747 177.364 189.738 173.709C189.721 168.829 188.25 164.156 185.646 160.71C183.042 157.264 179.516 155.325 175.838 155.316V155.316Z" fill="#DFEAEF"/>
<path d="M385.738 255.324H342.8C342.469 255.324 342.151 255.149 341.916 254.838C341.682 254.527 341.55 254.105 341.55 253.665V179.232C341.55 178.792 341.682 178.37 341.916 178.059C342.151 177.748 342.469 177.573 342.8 177.573H385.738C386.069 177.573 386.387 177.748 386.621 178.059C386.856 178.37 386.988 178.792 386.988 179.232V253.665C386.988 253.883 386.955 254.099 386.892 254.3C386.83 254.501 386.738 254.684 386.621 254.838C386.505 254.992 386.368 255.114 386.216 255.197C386.064 255.281 385.902 255.324 385.738 255.324ZM344.05 252.007H384.488V180.89H344.05V252.007Z" fill="#DFEAEF"/>
<path d="M377.212 245.903H351.025C350.819 245.902 350.617 245.833 350.436 245.703C350.255 245.573 350.101 245.385 349.987 245.157C349.875 244.932 349.807 244.673 349.787 244.404C349.767 244.136 349.798 243.864 349.875 243.615L362.962 201.141C363.057 200.835 363.218 200.574 363.425 200.391C363.632 200.208 363.876 200.111 364.125 200.112C364.372 200.114 364.613 200.212 364.817 200.395C365.022 200.578 365.181 200.838 365.275 201.141L378.375 243.615C378.45 243.866 378.478 244.138 378.457 244.406C378.435 244.675 378.364 244.933 378.25 245.157C378.137 245.385 377.983 245.573 377.802 245.703C377.621 245.833 377.418 245.902 377.212 245.903ZM352.887 242.586H375.387L364.137 206.099L352.887 242.586Z" fill="#DFEAEF"/>
<path d="M373.75 214.292H351.025C350.694 214.292 350.376 214.118 350.141 213.806C349.907 213.495 349.775 213.074 349.775 212.634V187.889C349.775 187.449 349.907 187.027 350.141 186.716C350.376 186.405 350.694 186.23 351.025 186.23H373.75C374.082 186.23 374.4 186.405 374.634 186.716C374.868 187.027 375 187.449 375 187.889V212.634C375 213.074 374.868 213.495 374.634 213.806C374.4 214.118 374.082 214.292 373.75 214.292ZM352.325 210.975H372.5V189.547H352.275L352.325 210.975Z" fill="#DFEAEF"/>
<path d="M355.987 158.584H328.887C328.556 158.584 328.238 158.409 328.004 158.098C327.769 157.787 327.637 157.365 327.637 156.925V129.842C327.637 129.402 327.769 128.98 328.004 128.669C328.238 128.358 328.556 128.184 328.887 128.184H355.987C356.319 128.184 356.637 128.358 356.871 128.669C357.106 128.98 357.237 129.402 357.237 129.842V156.925C357.237 157.365 357.106 157.787 356.871 158.098C356.637 158.409 356.319 158.584 355.987 158.584ZM330.137 155.267H354.737V131.501H330.137V155.267Z" fill="#DFEAEF"/>
<path d="M336.75 148.301C336.508 148.299 336.272 148.204 336.07 148.027C335.868 147.851 335.709 147.6 335.612 147.306C335.546 147.107 335.509 146.892 335.505 146.674C335.502 146.456 335.53 146.24 335.589 146.036C335.648 145.833 335.737 145.647 335.851 145.489C335.964 145.332 336.1 145.205 336.25 145.117L341.937 141.8C342.129 141.692 342.338 141.648 342.545 141.675C342.753 141.701 342.952 141.795 343.125 141.949L345.8 144.321L350 136.36C350.089 136.169 350.207 136.004 350.346 135.875C350.485 135.746 350.643 135.656 350.809 135.611C350.975 135.565 351.146 135.565 351.312 135.61C351.479 135.655 351.636 135.744 351.775 135.873C351.915 136.001 352.033 136.166 352.123 136.357C352.212 136.548 352.272 136.761 352.298 136.984C352.323 137.206 352.315 137.433 352.272 137.651C352.229 137.869 352.154 138.073 352.05 138.251L347.15 147.588C346.963 147.942 346.679 148.185 346.36 148.265C346.04 148.346 345.709 148.257 345.437 148.019L342.3 145.25L337.3 148.169C337.128 148.272 336.939 148.318 336.75 148.301V148.301Z" fill="#DFEAEF"/>
</svg>
