<svg width="500" height="500" viewBox="0 0 500 500" fill="none" xmlns="http://www.w3.org/2000/svg">
<rect width="500" height="500" fill="white"/>
<path d="M256.813 467.562L471.188 299.456C478.013 294.365 483.863 286.023 477.213 280.549L262.075 116.043C258.85 113.39 253.95 111.648 250.663 114.186L25.6625 287.465C18.8375 292.723 17.6125 307.367 24.4125 312.675L228.563 467.263C232.846 470.566 237.704 472.331 242.658 472.383C247.612 472.436 252.49 470.774 256.813 467.562V467.562Z" fill="#FFB3A6"/>
<path style="mix-blend-mode:multiply" d="M163.575 359.378L129.5 384.471C129.5 384.471 161.337 417.774 175.625 425.801L209.737 398.85" fill="url(#paint0_linear_25_9)"/>
<path style="mix-blend-mode:multiply" d="M162.187 259.056L128.112 284.149C128.112 284.149 136.275 301.281 150.612 309.242L187.437 282.291" fill="url(#paint1_linear_25_9)"/>
<path style="mix-blend-mode:multiply" d="M346.5 358.002C346.5 358.002 387.687 327.402 387.937 326.888L323.95 284.149L287.962 311.713L346.5 358.002Z" fill="url(#paint2_linear_25_9)"/>
<path d="M393.75 233.05L446 276.022C446.479 276.414 446.873 276.966 447.142 277.622C447.411 278.278 447.547 279.016 447.535 279.763C447.524 280.51 447.366 281.24 447.077 281.881C446.788 282.522 446.378 283.052 445.887 283.419L366.588 342.876C365.485 343.718 364.235 344.162 362.963 344.162C361.69 344.162 360.44 343.718 359.338 342.876L307.325 302.309C303.575 298.196 304.6 292.093 307.325 290.102L386.163 232.917C387.318 232.025 388.634 231.566 389.97 231.59C391.307 231.613 392.613 232.118 393.75 233.05V233.05Z" fill="#68E1FD"/>
<path d="M393.75 230.098L446 273.07C446.479 273.462 446.873 274.014 447.142 274.67C447.411 275.326 447.547 276.064 447.535 276.811C447.524 277.558 447.366 278.288 447.077 278.929C446.788 279.57 446.378 280.1 445.888 280.467L366.6 339.974C365.498 340.816 364.248 341.26 362.975 341.26C361.703 341.26 360.453 340.816 359.35 339.974L307.338 299.407C306.728 298.937 306.222 298.264 305.87 297.453C305.518 296.642 305.333 295.723 305.333 294.788C305.333 293.852 305.518 292.933 305.87 292.123C306.222 291.312 306.728 290.638 307.338 290.169L386.175 230.032C387.324 229.133 388.636 228.664 389.97 228.676C391.303 228.688 392.61 229.179 393.75 230.098Z" fill="white"/>
<path d="M390.275 232.42L442.787 276.271L364.25 335.893L310.062 293.618L390.275 232.42Z" fill="#606060"/>
<path d="M333.713 317.667C334.741 317.667 335.575 317.147 335.575 316.506C335.575 315.865 334.741 315.345 333.713 315.345C332.684 315.345 331.85 315.865 331.85 316.506C331.85 317.147 332.684 317.667 333.713 317.667Z" fill="#383097"/>
<path style="mix-blend-mode:multiply" d="M392.212 305.095C392.212 305.095 399.05 288.228 399.087 288.145L397.912 287.366L383.387 298.495L392.212 305.095Z" fill="url(#paint3_linear_25_9)"/>
<path d="M453.625 242.885C453.607 242.765 453.607 242.641 453.625 242.52C452.912 242.025 452.144 241.684 451.35 241.509L402.6 280.118C402.6 280.118 399.675 283.153 405.1 287.25L454.588 248.225C454.54 246.378 454.213 244.562 453.625 242.885V242.885Z" fill="#CCCCCC"/>
<path d="M402.5 280.102C402.5 280.102 396.825 288.527 396.725 289.074C396.625 289.622 404.937 287.233 404.937 287.233" fill="#CCCCCC"/>
<path d="M454.409 248.239C455.305 247.552 455.364 245.458 454.539 243.562C453.714 241.666 452.318 240.686 451.421 241.373C450.524 242.06 450.466 244.154 451.291 246.05C452.116 247.946 453.512 248.926 454.409 248.239Z" fill="#F2F2F2"/>
<path d="M207.262 226.25L227.737 239.336C228.507 239.83 229.161 240.591 229.629 241.54C230.097 242.488 230.362 243.588 230.395 244.721C230.429 245.854 230.229 246.978 229.818 247.972C229.407 248.966 228.8 249.793 228.062 250.365L179.525 287.93C178.476 288.741 177.231 288.984 176.05 288.607C174.869 288.23 173.844 287.262 173.187 285.907L161.4 261.61" fill="#56403D"/>
<path d="M95.8499 163.327L259.175 38.492C260.295 37.6319 261.566 37.1789 262.861 37.1785C264.155 37.1781 265.427 37.6304 266.547 38.4898C267.668 39.3492 268.598 40.5853 269.243 42.0736C269.889 43.5619 270.228 45.2497 270.225 46.9669V176.827C270.224 178.253 269.941 179.653 269.403 180.887C268.866 182.122 268.093 183.146 267.162 183.859L93.0749 317.186C92.4741 317.646 91.7926 317.888 91.0989 317.888C90.4051 317.888 89.7237 317.645 89.1231 317.184C88.5225 316.724 88.0239 316.061 87.6775 315.264C87.3311 314.466 87.1492 313.562 87.1499 312.642V183.279C87.1541 179.233 87.9602 175.26 89.4872 171.758C91.0142 168.256 93.2085 165.348 95.8499 163.327Z" fill="#141850"/>
<path d="M259.15 48.3104L100.8 169.198C99.1085 170.49 97.7036 172.351 96.727 174.593C95.7505 176.835 95.2367 179.379 95.2375 181.969V279.322C95.2394 280.253 95.4252 281.167 95.7764 281.973C96.1276 282.779 96.6319 283.449 97.2391 283.915C97.8462 284.382 98.5349 284.629 99.2365 284.632C99.9381 284.635 100.628 284.394 101.238 283.933L181.988 222.453L262.738 160.972C263.341 160.514 263.843 159.852 264.192 159.054C264.54 158.256 264.725 157.35 264.725 156.428V52.6391C264.723 51.7737 264.55 50.924 264.225 50.1741C263.899 49.4241 263.432 48.7998 262.869 48.3627C262.306 47.9256 261.667 47.6908 261.015 47.6817C260.363 47.6725 259.72 47.8892 259.15 48.3104Z" fill="white"/>
<path d="M196.629 227.621C197.04 224.788 195.862 222.105 193.998 221.629C192.133 221.152 190.289 223.063 189.878 225.896C189.466 228.729 190.644 231.412 192.509 231.889C194.373 232.365 196.217 230.454 196.629 227.621Z" fill="#AB643C"/>
<path d="M267.2 282.391L309.925 314.781C310.372 315.123 310.742 315.615 311 316.208C311.258 316.8 311.394 317.472 311.394 318.156C311.394 318.84 311.258 319.512 311 320.105C310.742 320.697 310.372 321.189 309.925 321.531L191.25 412.118C189.811 413.218 188.18 413.798 186.519 413.798C184.858 413.798 183.227 413.218 181.788 412.118L141.788 381.486C141.323 381.129 140.938 380.616 140.669 379.999C140.401 379.382 140.26 378.682 140.26 377.97C140.26 377.257 140.401 376.558 140.669 375.941C140.938 375.324 141.323 374.811 141.788 374.454L261.863 282.424C262.671 281.794 263.591 281.459 264.528 281.453C265.466 281.447 266.387 281.771 267.2 282.391V282.391Z" fill="#974C26"/>
<path d="M202.637 334.036L214.837 343.622L205.787 350.604C203.287 348.631 195.912 342.892 193.55 341.052L202.637 334.036Z" fill="white"/>
<path d="M216 323.737L228.2 333.323L216.737 342.163C214.737 340.62 207.35 334.832 204.5 332.61L216 323.737Z" fill="white"/>
<path d="M264.55 286.338L276.937 295.775L265.913 304.266C264.163 302.923 256.688 297.068 253.675 294.713L264.55 286.338Z" fill="white"/>
<path d="M238.45 306.389L250.65 315.975L241.6 322.941C239.463 321.282 232.1 315.527 229.363 313.388L238.45 306.389Z" fill="white"/>
<path d="M251.812 296.14L264.012 305.726L252.5 314.566C251.15 313.537 243.475 307.534 240.262 305.013L251.812 296.14Z" fill="white"/>
<path d="M191.688 342.478L203.888 352.064L195.225 358.698C192.625 356.674 185.3 350.953 182.988 349.145L191.688 342.478Z" fill="white"/>
<path d="M227.5 314.88L239.7 324.466L230.112 331.847C227.862 330.188 220.525 324.367 217.875 322.294L227.5 314.88Z" fill="white"/>
<path d="M181.125 350.621L193.325 360.207L181.862 369.047C179.462 367.19 172.15 361.468 169.625 359.494L181.125 350.621Z" fill="white"/>
<path d="M167.75 360.92L179.95 370.507L159.388 386.345L146.988 376.908L167.75 360.92Z" fill="white"/>
<path d="M278.525 298.577L290.912 308.014L274.9 320.353C272.8 318.695 265.437 312.973 262.662 310.8L278.525 298.577Z" fill="white"/>
<path d="M247.425 322.526L259.625 332.112L250.575 339.095C248.15 337.22 240.837 331.499 238.337 329.542L247.425 322.526Z" fill="white"/>
<path d="M225 339.824L237.2 349.41L225.737 358.25C223.437 356.476 216.113 350.737 213.5 348.697L225 339.824Z" fill="white"/>
<path d="M236.475 330.968L248.675 340.554L239.088 347.934C236.588 345.994 229.25 340.255 226.85 338.381L236.475 330.968Z" fill="white"/>
<path d="M211.612 350.124L223.812 359.71L214.762 366.692C211.962 364.519 204.6 358.748 202.525 357.139L211.612 350.124Z" fill="white"/>
<path d="M200.662 358.565L212.862 368.152L204.2 374.786C201.35 372.58 193.975 366.792 191.962 365.233L200.662 358.565Z" fill="white"/>
<path d="M260.788 312.227L272.988 321.813L261.525 330.636C259.713 329.243 252.25 323.405 249.288 321.083L260.788 312.227Z" fill="white"/>
<path d="M190.1 366.708L202.3 376.295L190.838 385.134C188.188 383.078 180.838 377.34 178.6 375.581L190.1 366.708Z" fill="white"/>
<path d="M188.925 386.594L173.35 398.585L160.962 389.148L176.725 376.991L188.925 386.594Z" fill="white"/>
<path d="M198.05 384.952L207.125 392.1L196.6 400.177L187.387 393.161L198.05 384.952Z" fill="white"/>
<path d="M194.425 401.852L185.475 408.735L176.25 401.736L185.363 394.72L194.425 401.852Z" fill="white"/>
<path d="M293.8 311.166L303.3 318.148L292.525 326.44L283.2 319.325L293.8 311.166Z" fill="white"/>
<path d="M281.187 320.884L290.35 328.099L278.85 336.955L269.537 329.857L281.187 320.884Z" fill="white"/>
<path d="M267.512 331.416L276.662 338.63L209.312 390.409L200.075 383.376L267.512 331.416Z" fill="white"/>
<path style="mix-blend-mode:multiply" d="M297.575 178.685L280.075 192.4C280.075 192.4 285.475 204.972 298.825 212.402L319.15 197.907" fill="url(#paint4_linear_25_9)"/>
<path d="M311.763 199.034C320.703 199.034 327.95 192.262 327.95 183.909C327.95 175.555 320.703 168.783 311.763 168.783C302.823 168.783 295.575 175.555 295.575 183.909C295.575 192.262 302.823 199.034 311.763 199.034Z" fill="#68E1FD"/>
<path d="M311.775 181.554C318.471 181.554 323.9 178.606 323.9 174.969C323.9 171.333 318.471 168.385 311.775 168.385C305.078 168.385 299.65 171.333 299.65 174.969C299.65 178.606 305.078 181.554 311.775 181.554Z" fill="#974C26"/>
<path d="M312.575 175.119C313.525 173.344 314.487 171.487 315.487 169.397C316.737 166.727 317.987 164.007 319.075 161.187C320.098 158.695 320.971 156.1 321.688 153.426C322.484 150.521 323.123 147.545 323.6 144.52C323.725 143.724 323.825 142.861 323.937 142.131C323.937 141.767 323.937 141.8 323.937 141.849C323.937 141.899 323.937 141.601 323.937 141.153C324.05 139.494 324.125 137.836 324.137 136.277C324.193 130.637 323.372 125.042 321.725 119.841C317.348 128.263 314.398 137.842 313.075 147.92C312.992 148.517 312.912 149.119 312.837 149.727C312.837 149.727 312.712 150.822 312.662 151.27L312.537 152.779C312.479 153.542 312.425 154.31 312.375 155.084C312.2 158.053 312.112 161.022 312.125 163.99C312.225 167.705 312.35 171.42 312.575 175.119ZM317.725 130.738C318.017 130.295 318.321 129.864 318.637 129.444C318.573 129.826 318.573 130.223 318.637 130.605C318.334 130.583 318.03 130.628 317.737 130.738H317.725Z" fill="#999A1C"/>
<path d="M312.888 175.368C312.975 173.195 313.013 170.94 313 168.468C313 165.301 312.888 162.149 312.675 158.998C312.521 156.166 312.199 153.355 311.713 150.59C311.202 147.572 310.529 144.607 309.7 141.717C309.475 140.954 309.25 140.208 309 139.461C308.888 139.113 308.913 139.146 308.938 139.196L308.688 138.582C308.113 137.139 307.525 135.713 306.875 134.337C304.618 129.545 301.639 125.423 298.125 122.229C297.871 132.463 299.291 142.647 302.288 152.082C302.463 152.646 302.642 153.199 302.825 153.741L303.313 155.167L303.825 156.544C304.083 157.229 304.35 157.915 304.625 158.6C305.688 161.221 306.825 163.775 308.038 166.279C309.563 169.414 311.188 172.432 312.888 175.368ZM299.138 134.337C299.204 133.751 299.283 133.198 299.375 132.678C299.459 133.052 299.604 133.398 299.8 133.69C299.555 133.866 299.332 134.089 299.138 134.353V134.337Z" fill="#999A1C"/>
<path d="M312.962 176.528C312.475 175.318 311.95 174.09 311.35 172.747C310.575 171.089 309.75 169.43 308.85 167.772C308.066 166.312 307.197 164.937 306.25 163.659C305.239 162.247 304.153 160.934 303 159.728L302.125 158.783C301.975 158.65 302 158.65 302.025 158.666L301.737 158.434C301.075 157.904 300.412 157.389 299.725 156.925C297.347 155.304 294.743 154.349 292.075 154.122C294.426 159.747 297.667 164.629 301.575 168.435L302.275 169.115L302.875 169.679L303.487 170.193L304.425 170.956C305.633 171.918 306.883 172.813 308.175 173.643C309.712 174.721 311.325 175.666 312.962 176.528ZM295.562 160.275C295.454 159.932 295.354 159.584 295.262 159.23C295.398 159.397 295.561 159.522 295.737 159.595C295.653 159.808 295.594 160.038 295.562 160.275V160.275Z" fill="#999A1C"/>
<path d="M312.575 175.119C313.525 173.344 314.487 171.487 315.487 169.397C316.737 166.727 317.987 164.007 319.075 161.187C320.098 158.695 320.971 156.1 321.688 153.426C322.484 150.521 323.123 147.545 323.6 144.52C323.725 143.724 323.825 142.861 323.937 142.131C323.937 141.767 323.937 141.8 323.937 141.849C323.937 141.899 323.937 141.601 323.937 141.153C324.05 139.494 324.125 137.836 324.137 136.277C324.193 130.637 323.372 125.042 321.725 119.841C317.348 128.263 314.398 137.842 313.075 147.92C312.992 148.517 312.912 149.119 312.837 149.727C312.837 149.727 312.712 150.822 312.662 151.27L312.537 152.779C312.479 153.542 312.425 154.31 312.375 155.084C312.2 158.053 312.112 161.022 312.125 163.99C312.225 167.705 312.35 171.42 312.575 175.119ZM317.725 130.738C318.017 130.295 318.321 129.864 318.637 129.444C318.573 129.826 318.573 130.223 318.637 130.605C318.334 130.583 318.03 130.628 317.737 130.738H317.725Z" fill="#999A1C"/>
<path d="M312.888 175.368C312.975 173.195 313.013 170.94 313 168.468C313 165.301 312.888 162.149 312.675 158.998C312.521 156.166 312.199 153.355 311.713 150.59C311.202 147.572 310.529 144.607 309.7 141.717C309.475 140.954 309.25 140.208 309 139.461C308.888 139.113 308.913 139.146 308.938 139.196L308.688 138.582C308.113 137.139 307.525 135.713 306.875 134.337C304.618 129.545 301.639 125.423 298.125 122.229C297.871 132.463 299.291 142.647 302.288 152.082C302.463 152.646 302.642 153.199 302.825 153.741L303.313 155.167L303.825 156.544C304.083 157.229 304.35 157.915 304.625 158.6C305.688 161.221 306.825 163.775 308.038 166.279C309.563 169.414 311.188 172.432 312.888 175.368ZM299.138 134.337C299.204 133.751 299.283 133.198 299.375 132.678C299.459 133.052 299.604 133.398 299.8 133.69C299.555 133.866 299.332 134.089 299.138 134.353V134.337Z" fill="#999A1C"/>
<path d="M312.962 176.528C312.475 175.318 311.95 174.09 311.35 172.747C310.575 171.089 309.75 169.43 308.85 167.772C308.066 166.312 307.197 164.937 306.25 163.659C305.239 162.247 304.153 160.934 303 159.728L302.125 158.783C301.975 158.65 302 158.65 302.025 158.666L301.737 158.434C301.075 157.904 300.412 157.389 299.725 156.925C297.347 155.304 294.743 154.349 292.075 154.122C294.426 159.747 297.667 164.629 301.575 168.435L302.275 169.115L302.875 169.679L303.487 170.193L304.425 170.956C305.633 171.918 306.883 172.813 308.175 173.643C309.712 174.721 311.325 175.666 312.962 176.528ZM295.562 160.275C295.454 159.932 295.354 159.584 295.262 159.23C295.398 159.397 295.561 159.522 295.737 159.595C295.653 159.808 295.594 160.038 295.562 160.275V160.275Z" fill="#999A1C"/>
<path d="M129.65 241.343L187.388 200.593L152.738 156.693L129.65 241.343Z" fill="#E88831"/>
<path d="M232.375 145.051C244.512 145.051 254.35 131.997 254.35 115.894C254.35 99.7915 244.512 86.7378 232.375 86.7378C220.239 86.7378 210.4 99.7915 210.4 115.894C210.4 131.997 220.239 145.051 232.375 145.051Z" fill="#7ACC92"/>
<path d="M117.5 184.042C114 181.388 110.85 188.553 114.35 191.206C125.213 199.499 116.513 217.543 108.425 222.718C104.8 225.023 107.963 232.188 111.575 229.882C124.2 221.806 132.5 195.27 117.5 184.042Z" fill="#56403D"/>
<path d="M217.5 163.758C214.175 143.143 193.263 155.797 196.9 174.489C198.475 182.582 205.125 187.292 210.875 183.279C213.389 181.366 215.383 178.449 216.572 174.943C217.762 171.438 218.087 167.523 217.5 163.758V163.758ZM211.475 168.933C211.343 170.464 210.922 171.926 210.251 173.184C209.58 174.442 208.681 175.455 207.638 176.131C202.863 178.552 202.975 170.508 204.15 166.661C206.25 159.529 212.5 160.441 211.45 168.999L211.475 168.933Z" fill="#56403D"/>
<path d="M207.825 428.67C207.953 427.597 208.277 426.582 208.77 425.715C209.262 424.847 209.908 424.153 210.65 423.694L219.712 416.762L233.712 405.998L250.437 393.145L268.237 379.479L285.45 366.211L300.45 354.717L311.512 346.226L317.325 341.765C317.325 341.93 317.525 341.93 317.65 341.881C318.34 341.657 319.062 341.674 319.746 341.928C320.43 342.182 321.053 342.666 321.556 343.332C322.058 343.999 322.423 344.826 322.614 345.733C322.806 346.641 322.818 347.599 322.65 348.515C321.975 351.997 319.737 355.066 317.65 357.189C310.882 363.636 303.818 369.518 296.5 374.802V371.336C301.425 367.753 312.05 359.726 316.5 353.59L314.375 355.248L308.525 359.792L299.712 366.625L288.712 375.15L276.25 384.885L263.175 395.019L250.225 405.053L238.175 414.407L227.837 422.484L219.875 428.653C217.45 430.544 214.812 433.098 211.987 433.828C211.454 433.878 210.919 433.782 210.415 433.545C209.911 433.308 209.449 432.936 209.059 432.452C208.668 431.968 208.357 431.382 208.145 430.732C207.932 430.081 207.823 429.379 207.825 428.67V428.67Z" fill="#141850"/>
<path style="mix-blend-mode:multiply" d="M278.675 251.824L260 266.585C260 266.585 272.263 282.175 286.55 290.152L303.913 275.11" fill="url(#paint5_linear_25_9)"/>
<path d="M276.887 241.293V252.886L303.875 275.06L336.275 248.789V238.905" fill="#E54C3C"/>
<path d="M336.275 238.905L308.762 217.062L276.887 241.293L304.4 263.467L336.275 238.905Z" fill="#F5604B"/>
<defs>
<linearGradient id="paint0_linear_25_9" x1="203.662" y1="354.867" x2="145.578" y2="390.497" gradientUnits="userSpaceOnUse">
<stop stop-color="#D4A397"/>
<stop offset="1" stop-color="white"/>
</linearGradient>
<linearGradient id="paint1_linear_25_9" x1="8984.15" y1="7849.71" x2="7310.44" y2="9460.11" gradientUnits="userSpaceOnUse">
<stop stop-color="#D4A397"/>
<stop offset="1" stop-color="white"/>
</linearGradient>
<linearGradient id="paint2_linear_25_9" x1="352.337" y1="291.181" x2="317.676" y2="329.665" gradientUnits="userSpaceOnUse">
<stop offset="0.01" stop-color="#4D4D4D"/>
<stop offset="1" stop-color="white"/>
</linearGradient>
<linearGradient id="paint3_linear_25_9" x1="5364.06" y1="3317.68" x2="5246.53" y2="3471.02" gradientUnits="userSpaceOnUse">
<stop offset="0.01" stop-color="#4D4D4D"/>
<stop offset="1" stop-color="white"/>
</linearGradient>
<linearGradient id="paint4_linear_25_9" x1="309.425" y1="180.973" x2="286.513" y2="199.893" gradientUnits="userSpaceOnUse">
<stop stop-color="#78B46A"/>
<stop offset="0.03" stop-color="#7F3500"/>
<stop offset="1" stop-color="white"/>
</linearGradient>
<linearGradient id="paint5_linear_25_9" x1="10811.7" y1="6021.32" x2="9998.39" y2="6780.03" gradientUnits="userSpaceOnUse">
<stop stop-color="#D4A397"/>
<stop offset="1" stop-color="white"/>
</linearGradient>
</defs>
</svg>
