<svg width="500" height="500" viewBox="0 0 500 500" fill="none" xmlns="http://www.w3.org/2000/svg">
<rect width="500" height="500" fill="white"/>
<path d="M366.313 339.725C366.313 339.725 407.475 197.26 386.15 175.533C364.825 153.807 275.388 162.581 270.488 170.342C265.588 178.104 236.738 349.593 236.738 349.593L366.313 339.725Z" fill="#F5CAC2"/>
<path d="M236.675 350.455C236.586 350.454 236.497 350.428 236.416 350.38C236.334 350.331 236.26 350.261 236.2 350.173C236.138 350.076 236.094 349.961 236.072 349.837C236.05 349.713 236.051 349.583 236.075 349.46C237.25 342.444 265.063 177.673 270.013 169.845C272.725 165.549 296.6 161.552 322.15 161.104C337.15 160.839 373.513 161.652 386.538 174.903C395.6 184.124 395.025 214.707 384.838 265.988C377.338 303.918 367 339.658 366.9 340.006C366.858 340.157 366.784 340.288 366.686 340.382C366.588 340.477 366.471 340.531 366.35 340.537L236.713 350.488L236.675 350.455ZM326.875 162.713H322.175C295.925 163.178 273.113 167.473 270.925 170.873C267.175 176.86 247.475 289.174 237.425 348.714L365.838 338.895C368.475 329.624 405.838 196.629 385.738 176.18C377.275 167.573 355.938 162.713 326.875 162.713Z" fill="#231F20"/>
<path d="M199.175 216.631L180.625 299.241C180.625 299.241 218.887 305.792 218.887 303.918C218.887 302.044 226.387 213.015 226.387 213.015L199.175 216.631Z" fill="#FCBF81"/>
<path d="M216.963 304.995C210.5 304.995 192.163 302.043 180.55 300.02C180.461 300.003 180.375 299.961 180.298 299.897C180.222 299.832 180.157 299.747 180.107 299.647C180.057 299.546 180.024 299.433 180.01 299.314C179.996 299.196 180.001 299.074 180.025 298.959L198.575 216.349C198.61 216.189 198.679 216.047 198.775 215.941C198.871 215.834 198.988 215.769 199.113 215.752L226.338 212.136C226.43 212.125 226.523 212.141 226.609 212.185C226.696 212.228 226.774 212.296 226.838 212.385C226.905 212.469 226.956 212.573 226.986 212.688C227.017 212.804 227.026 212.927 227.013 213.048C224.425 243.731 219.513 302.193 219.513 303.868C219.501 304.139 219.412 304.394 219.263 304.581C218.53 304.949 217.743 305.091 216.963 304.995ZM181.388 298.544C194.688 300.799 215.338 303.934 218.238 303.387C218.713 296.222 224.8 223.912 225.638 213.944L199.613 217.41L181.388 298.544Z" fill="#231F20"/>
<path d="M164.012 196.115C164.175 196.348 170.762 194.009 174.162 199.432C177.562 204.856 173.15 209.698 162.412 206.896C151.675 204.093 164.012 196.115 164.012 196.115Z" fill="white"/>
<path d="M168.075 208.537C166.131 208.512 164.193 208.239 162.288 207.725C159.188 206.912 157.588 205.585 157.4 203.645C157.038 199.897 162.613 196.099 163.738 195.352C163.867 195.294 164.008 195.294 164.138 195.352H164.55C166.3 195.07 171.625 194.175 174.65 198.984C176 201.107 176.288 203.28 175.488 205.104C174.45 207.277 171.763 208.537 168.075 208.537ZM164.15 196.928C161.713 198.586 158.5 201.505 158.675 203.346C158.675 203.96 159.325 205.121 162.538 205.967C169.8 207.857 173.45 206.099 174.375 204.026C174.596 203.323 174.646 202.545 174.519 201.802C174.391 201.059 174.092 200.387 173.663 199.88C171.088 195.8 166.45 196.563 164.713 196.862C164.475 196.928 164.3 196.928 164.15 196.928V196.928Z" fill="#231F20"/>
<path d="M147.5 178.784C147.5 178.784 146.15 176.727 147 175.285C147.191 174.992 147.432 174.763 147.703 174.619C147.974 174.474 148.267 174.417 148.558 174.453C148.849 174.489 149.129 174.616 149.376 174.824C149.622 175.032 149.828 175.315 149.975 175.649C149.975 175.649 147.85 176.661 147.5 178.784Z" fill="white"/>
<path d="M147.5 179.63C147.408 179.631 147.318 179.607 147.234 179.558C147.15 179.51 147.074 179.438 147.013 179.348C146.388 178.386 145.563 176.33 146.5 174.771C146.71 174.405 146.98 174.109 147.29 173.904C147.6 173.7 147.941 173.594 148.288 173.593C148.714 173.603 149.132 173.744 149.51 174.006C149.887 174.268 150.214 174.643 150.463 175.102C150.531 175.208 150.578 175.335 150.6 175.471C150.622 175.607 150.618 175.748 150.588 175.882C150.561 176.014 150.511 176.136 150.442 176.237C150.372 176.339 150.285 176.416 150.188 176.462C149.688 176.694 148.35 177.623 148.125 178.967C148.101 179.121 148.045 179.263 147.963 179.377C147.882 179.492 147.777 179.573 147.663 179.613L147.5 179.63ZM148.313 175.301C148.161 175.304 148.011 175.352 147.875 175.441C147.739 175.53 147.619 175.658 147.525 175.815C147.454 175.997 147.417 176.199 147.417 176.404C147.417 176.609 147.454 176.811 147.525 176.993C147.902 176.38 148.359 175.863 148.875 175.467C148.702 175.367 148.512 175.332 148.325 175.368L148.313 175.301Z" fill="#231F20"/>
<path d="M150.45 175.566C149.707 175.647 149.004 176.051 148.452 176.717C147.9 177.384 147.531 178.274 147.4 179.248L174.213 225.537C174.378 223.319 175.1 221.238 176.263 219.63C177.426 218.021 178.962 216.976 180.625 216.664L150.45 175.566Z" fill="#FCB749"/>
<path d="M174.2 226.383C174.103 226.382 174.008 226.351 173.921 226.294C173.835 226.236 173.759 226.153 173.7 226.051L146.888 179.763C146.827 179.658 146.786 179.536 146.766 179.407C146.747 179.277 146.75 179.144 146.775 179.016C146.952 177.865 147.406 176.822 148.069 176.044C148.732 175.266 149.568 174.796 150.45 174.704C150.537 174.705 150.622 174.729 150.702 174.775C150.781 174.82 150.853 174.887 150.913 174.969L181.088 216.067C181.172 216.177 181.23 216.317 181.257 216.469C181.283 216.622 181.277 216.782 181.238 216.929C181.203 217.078 181.137 217.211 181.049 217.313C180.961 217.415 180.853 217.483 180.738 217.51C179.214 217.786 177.805 218.735 176.737 220.203C175.669 221.671 175.004 223.573 174.85 225.603C174.84 225.776 174.79 225.939 174.707 226.073C174.624 226.206 174.513 226.303 174.388 226.35L174.2 226.383ZM148.113 179.083L173.875 223.547C174.238 221.797 174.933 220.199 175.894 218.907C176.854 217.615 178.049 216.672 179.363 216.167L150.213 176.462C149.714 176.598 149.254 176.915 148.883 177.378C148.512 177.841 148.246 178.431 148.113 179.083V179.083Z" fill="#231F20"/>
<path d="M174.213 225.537L183.363 231.839L184.5 230.43L180.625 216.664C180.625 216.664 173.5 215.719 174.213 225.537Z" fill="#FCB749"/>
<path d="M183.363 232.685C183.258 232.687 183.155 232.653 183.063 232.586L173.913 226.283C173.816 226.219 173.733 226.123 173.671 226.004C173.61 225.885 173.573 225.747 173.563 225.603C173.389 224.284 173.444 222.929 173.723 221.642C174.002 220.354 174.499 219.168 175.175 218.173C175.93 217.313 176.806 216.66 177.752 216.253C178.698 215.845 179.696 215.692 180.688 215.802C180.81 215.817 180.927 215.878 181.024 215.978C181.122 216.078 181.196 216.212 181.238 216.366L185.1 230.131C185.147 230.29 185.156 230.463 185.127 230.629C185.098 230.794 185.032 230.945 184.938 231.06L183.8 232.47C183.679 232.609 183.524 232.686 183.363 232.685V232.685ZM174.825 224.99L183.25 230.794L183.75 230.197L180.175 217.493C178.68 217.437 177.222 218.109 176.075 219.384C175.573 220.142 175.202 221.037 174.986 222.004C174.77 222.972 174.715 223.991 174.825 224.99V224.99Z" fill="#231F20"/>
<path d="M183.363 231.839L185.113 234.327L185.938 233.083L184.5 230.43L183.363 231.839Z" fill="white"/>
<path d="M185.112 235.189C185.024 235.19 184.937 235.165 184.858 235.117C184.778 235.068 184.707 234.996 184.65 234.907L182.887 232.42C182.774 232.251 182.711 232.032 182.712 231.806C182.722 231.578 182.798 231.364 182.925 231.209L184.062 229.799C184.13 229.718 184.21 229.656 184.297 229.619C184.383 229.581 184.475 229.568 184.566 229.581C184.657 229.593 184.745 229.631 184.824 229.691C184.903 229.752 184.971 229.834 185.025 229.932L186.462 232.585C186.554 232.736 186.604 232.923 186.604 233.116C186.604 233.309 186.554 233.497 186.462 233.647L185.637 234.891C185.58 234.984 185.507 235.059 185.425 235.111C185.343 235.163 185.253 235.189 185.162 235.189H185.112ZM184.275 231.872L185.1 233.05L184.387 231.74L184.275 231.872Z" fill="#231F20"/>
<path d="M165.713 229.169C167.188 225.205 170.888 216.797 171.738 213.148C174.087 203.197 160.325 193.876 155.875 193.876C151.425 193.876 142.125 214.508 142.125 225.537C142.125 236.566 172.938 321.017 172.938 321.017L202.5 303.072L165.713 229.169Z" fill="#FCBF81"/>
<path d="M172.975 321.879C172.855 321.879 172.737 321.834 172.635 321.749C172.534 321.664 172.452 321.542 172.4 321.398C171.15 317.948 141.513 236.616 141.513 225.537C141.513 214.458 150.913 193.014 155.875 193.014C159.3 193.014 167.263 197.857 170.875 204.292C171.675 205.529 172.233 207.008 172.501 208.598C172.769 210.189 172.739 211.842 172.413 213.413C171.221 217.324 169.826 221.12 168.238 224.774C167.575 226.433 166.988 227.925 166.513 229.103L203.125 302.574C203.176 302.678 203.211 302.796 203.226 302.919C203.241 303.041 203.236 303.167 203.213 303.287C203.186 303.404 203.141 303.511 203.08 303.602C203.02 303.694 202.946 303.767 202.863 303.818L173.288 321.796C173.194 321.871 173.083 321.9 172.975 321.879ZM155.875 194.722C151.963 194.722 142.813 214.624 142.813 225.537C142.813 235.687 170.225 311.464 173.275 319.905L201.588 302.69L165.175 229.716C165.12 229.584 165.092 229.436 165.092 229.285C165.092 229.134 165.12 228.986 165.175 228.854C165.65 227.594 166.338 225.885 167.088 224.028C168.634 220.467 169.995 216.771 171.163 212.966C171.426 211.651 171.442 210.271 171.209 208.946C170.976 207.621 170.501 206.393 169.825 205.37C166.338 199.084 158.75 194.722 155.875 194.722Z" fill="#231F20"/>
<path d="M323 245.887L359.438 233.564C358.188 231.226 343.488 169.314 327.988 159.181C314.425 147.24 282.263 139.279 253.85 141.982C253.85 141.982 246.35 141.617 233.2 148.533C201.175 165.417 195 224.21 195 224.21L220 235.671C220 235.671 215.225 311.713 210.713 351.467C210.713 351.467 265.988 365.813 346.463 348.15C346.525 348.117 323.15 257.132 323 245.887Z" fill="#ED7966"/>
<path d="M320 160.889C315.175 167.523 311.413 175.484 306.088 181.736C294.613 195.203 279.6 205.867 263.863 204.574C245.313 203.048 229.275 186.231 225.25 161.735C222.75 146.377 225.35 132.114 234.3 121.267C240.488 113.771 248.413 109.193 256.513 106.341C278.025 98.6952 302.163 102.758 320.525 119.509C323.526 121.96 326.058 125.297 327.925 129.261C332.513 140.29 327.238 151.634 321.288 159.214C320.888 159.728 320.463 160.308 320 160.889Z" fill="#ED7966"/>
<path d="M256.713 178.27C256.525 178.27 253.075 183.842 252.9 183.925C254.863 193.744 256.938 206.531 265.313 207.791C282.3 210.362 284.875 180.31 288.075 166.13C276.313 170.508 268.013 172.266 256.713 178.27Z" fill="#231F20"/>
<path d="M267.3 208.786C266.615 208.779 265.931 208.724 265.25 208.62C256.888 207.36 254.525 195.353 252.613 185.75L252.288 184.091C252.257 183.928 252.265 183.757 252.31 183.6C252.354 183.443 252.434 183.308 252.538 183.212C252.738 182.964 253.65 181.554 254.313 180.526C256.25 177.573 256.275 177.557 256.475 177.441C263.394 173.892 270.496 171.004 277.725 168.8C280.913 167.739 284.2 166.644 287.85 165.284C287.957 165.244 288.071 165.243 288.179 165.281C288.286 165.319 288.384 165.394 288.463 165.5C288.538 165.607 288.591 165.738 288.617 165.88C288.643 166.022 288.642 166.171 288.613 166.312C288.138 168.419 287.675 170.906 287.175 173.543C284.588 187.74 280.625 208.77 267.3 208.786ZM253.55 184.191L253.775 185.335C255.688 194.954 257.838 205.851 265.35 206.896C279.263 209.002 283.15 188.254 286 173.095C286.388 171.022 286.763 169.032 287.138 167.241C283.9 168.419 280.888 169.414 278.05 170.376C270.886 172.533 263.851 175.382 257 178.9C256.75 179.232 255.875 180.559 255.225 181.57C254.35 183.063 253.863 183.793 253.588 184.191H253.55Z" fill="#231F20"/>
<path d="M273.163 62.5897C270.663 62.457 269.063 63.8999 266.913 64.9282C262.725 66.8852 260.775 62.2414 257.175 59.7703C251.507 55.8606 244.994 54.6743 238.742 56.4126C232.49 58.1509 226.883 62.7068 222.875 69.3066C220.381 73.226 218.766 77.9953 218.213 83.0722C217.688 88.8106 218.9 94.6817 218.15 100.354C217.692 103.611 216.616 106.66 215.024 109.214C213.432 111.767 211.376 113.741 209.05 114.948C213.052 115.358 217.077 114.853 220.95 113.456C219.837 115.211 218.453 116.63 216.892 117.617C215.331 118.604 213.629 119.136 211.9 119.178C215.886 123.244 220.785 125.422 225.813 125.364L217 128.1C224.5 134.486 233.638 136.393 242.475 135.862C260.075 134.651 289.55 125.098 289.038 94.8475C288.75 83.2546 283.95 63.2531 273.163 62.5897Z" fill="#E55600"/>
<path d="M239.45 136.841C232.713 136.841 224.088 135.182 216.613 128.847C216.51 128.756 216.43 128.628 216.381 128.478C216.332 128.328 216.317 128.162 216.338 128.001C216.363 127.843 216.421 127.698 216.505 127.581C216.589 127.464 216.695 127.379 216.813 127.337L221.713 125.828C217.983 124.985 214.464 122.947 211.463 119.891C211.358 119.786 211.28 119.641 211.241 119.475C211.202 119.309 211.203 119.13 211.245 118.965C211.286 118.8 211.366 118.656 211.472 118.555C211.579 118.453 211.707 118.398 211.838 118.398C214.404 118.342 216.882 117.145 218.875 114.998C215.613 115.896 212.271 116.175 208.95 115.827C208.81 115.81 208.677 115.731 208.575 115.601C208.473 115.472 208.407 115.3 208.388 115.114C208.365 114.927 208.392 114.734 208.465 114.57C208.539 114.407 208.653 114.282 208.788 114.219C211.022 113.078 212.999 111.197 214.531 108.756C216.063 106.314 217.098 103.393 217.538 100.271C217.838 97.2896 217.864 94.271 217.613 91.2817C217.417 88.5236 217.417 85.7473 217.613 82.9892C218.181 77.7548 219.844 72.8366 222.413 68.7925C226.512 62.0437 232.245 57.3861 238.639 55.6113C245.034 53.8366 251.694 55.0542 257.488 59.0571C258.553 59.8287 259.565 60.7222 260.513 61.7273C262.538 63.7673 264.138 65.376 266.763 64.1653C267.325 63.8999 267.85 63.6014 268.363 63.3195C269.888 62.2915 271.577 61.7626 273.288 61.7771V61.7771C284.113 62.4073 289.538 81.878 289.713 94.8475C289.938 108.596 284.275 119.426 272.875 127.006C261.475 134.585 247.875 136.343 242.563 136.708C241.513 136.807 240.5 136.841 239.45 136.841ZM218.575 128.548C226.65 134.768 235.913 135.597 242.4 135.182C247.6 134.817 260.9 133.175 272.213 125.646C283.15 118.382 288.575 108.082 288.363 95.0133C288.15 82.6741 283.163 64.1487 273.138 63.5019C271.613 63.516 270.111 63.9985 268.75 64.9116C268.213 65.2102 267.663 65.5253 267.075 65.7906C263.838 67.2999 261.813 65.2599 259.675 63.1039C258.787 62.1596 257.837 61.3216 256.838 60.5995C251.301 56.7669 244.934 55.5994 238.821 57.2959C232.708 58.9924 227.228 63.4479 223.313 69.9037C220.901 73.6813 219.33 78.2757 218.775 83.1717C218.588 85.8139 218.588 88.4736 218.775 91.1159C219.029 94.2387 218.996 97.3909 218.675 100.503C218.28 103.344 217.433 106.04 216.189 108.411C214.945 110.783 213.334 112.774 211.463 114.252C214.58 114.247 217.682 113.689 220.688 112.593C220.817 112.544 220.955 112.551 221.081 112.613C221.207 112.676 221.315 112.791 221.388 112.942C221.464 113.085 221.505 113.256 221.505 113.431C221.505 113.606 221.464 113.777 221.388 113.92C219.409 117.043 216.649 119.116 213.613 119.758C217.228 122.886 221.46 124.524 225.775 124.468C225.93 124.463 226.08 124.535 226.196 124.671C226.311 124.806 226.385 124.994 226.4 125.198C226.42 125.401 226.382 125.606 226.295 125.775C226.207 125.943 226.075 126.063 225.925 126.11L218.575 128.548Z" fill="#E55600"/>
<path d="M251.65 155.366L252.9 183.925C252.9 183.925 262.738 198.852 275.4 189.68C288.063 180.509 287.575 165.964 287.575 165.964L279.263 112.345C279.263 112.345 267.775 108.829 264.85 78.8098C255.051 89.1045 243.339 95.6994 230.95 97.8991C230.95 97.8991 231.175 131.484 235.638 144.835C240.1 158.185 251.65 155.366 251.65 155.366Z" fill="#FCBF81"/>
<path d="M267.088 193.478C258.488 193.478 252.5 184.605 252.425 184.473C252.332 184.336 252.279 184.159 252.275 183.975L251.025 156.295C248.388 156.643 238.988 156.975 235.025 145.117C230.563 131.849 230.3 99.226 230.288 97.8494C230.289 97.6491 230.343 97.4559 230.442 97.304C230.54 97.1521 230.676 97.0516 230.825 97.0202C243.083 94.8027 254.673 88.2876 264.4 78.1465C264.486 78.0467 264.591 77.9801 264.703 77.9538C264.815 77.9275 264.931 77.9425 265.038 77.9972C265.142 78.0511 265.235 78.1409 265.305 78.2574C265.375 78.3739 265.421 78.513 265.438 78.6606C266.913 93.8524 270.638 101.962 273.5 106.109C275.047 108.585 277.08 110.445 279.375 111.482C279.49 111.522 279.594 111.604 279.676 111.718C279.757 111.833 279.813 111.975 279.838 112.129L288.163 165.798C288.163 166.08 288.538 181.089 275.663 190.41C273.046 192.38 270.096 193.436 267.088 193.478ZM253.5 183.527C254.75 185.335 263.7 197.177 275.113 188.901C287.263 180.078 286.963 166.063 286.963 165.931L278.725 112.859C276.65 111.947 267.25 106.44 264.388 80.2362C254.778 89.8664 243.5 96.1395 231.588 98.4796C231.588 103.455 232.213 132.412 236.2 144.37C240.413 156.942 251.088 154.57 251.538 154.47C251.624 154.448 251.713 154.45 251.799 154.476C251.885 154.501 251.967 154.55 252.038 154.62C252.106 154.696 252.162 154.79 252.203 154.895C252.243 155 252.268 155.115 252.275 155.233L253.5 183.527Z" fill="#231F20"/>
<path d="M274.575 127.37C277.512 127.957 280.504 126.98 282.9 124.65C284.518 122.951 285.779 120.728 286.562 118.196C287.346 115.663 287.626 112.906 287.375 110.188C287.298 108.157 286.871 106.177 286.125 104.4C285.76 103.512 285.255 102.738 284.645 102.131C284.035 101.524 283.333 101.099 282.588 100.884C280.742 100.732 278.908 101.378 277.363 102.725C274.938 104.384 274.863 106.225 273.538 108.944C273.688 108.696 273.8 107.999 273.95 107.75" fill="#FCBF81"/>
<path d="M276.25 128.382C275.656 128.379 275.063 128.318 274.475 128.2C274.31 128.163 274.162 128.042 274.064 127.862C273.966 127.682 273.925 127.458 273.95 127.238C273.962 127.131 273.99 127.028 274.033 126.935C274.076 126.842 274.132 126.762 274.198 126.698C274.265 126.635 274.34 126.59 274.42 126.566C274.5 126.542 274.582 126.539 274.663 126.558C277.432 127.099 280.25 126.162 282.5 123.954C284.032 122.337 285.224 120.225 285.962 117.82C286.699 115.415 286.958 112.798 286.713 110.222C286.663 108.319 286.282 106.457 285.6 104.782C285.278 104.005 284.835 103.329 284.3 102.797C283.766 102.265 283.152 101.89 282.5 101.697C280.95 101.332 279.4 102.277 277.675 103.455C276.49 104.22 275.563 105.545 275.075 107.17C274.813 107.8 274.525 108.513 274.138 109.293C274.112 109.36 274.078 109.422 274.038 109.475C273.937 109.64 273.792 109.747 273.633 109.771C273.474 109.796 273.314 109.738 273.188 109.608C273.056 109.484 272.966 109.296 272.938 109.085C272.909 108.874 272.945 108.656 273.038 108.48V108.48C273.038 108.48 273.038 108.265 273.125 108.149C273.199 107.848 273.304 107.564 273.438 107.303C273.502 107.202 273.584 107.123 273.675 107.071L273.913 106.473C274.53 104.55 275.648 102.984 277.063 102.062C278.538 101.05 280.575 99.6571 282.663 100.138C283.511 100.361 284.313 100.827 285.013 101.503C285.712 102.179 286.292 103.049 286.713 104.052C287.479 105.949 287.907 108.054 287.963 110.205C288.227 113.06 287.931 115.958 287.103 118.616C286.275 121.275 284.944 123.605 283.238 125.38C281.208 127.341 278.761 128.392 276.25 128.382V128.382Z" fill="#231F20"/>
<path d="M252.3 170.392C254.762 170.157 257.143 169.128 259.237 167.394C261.33 165.659 263.073 163.273 264.313 160.441C268.725 150.673 266.963 144.42 266.963 144.42C266.963 144.42 261.013 154.487 251.65 155.3L252.3 170.392Z" fill="#231F20"/>
<path d="M252.301 171.205C252.142 171.205 251.99 171.124 251.876 170.979C251.762 170.833 251.695 170.635 251.688 170.425L251.026 155.499C251.021 155.39 251.032 155.281 251.059 155.177C251.085 155.074 251.127 154.979 251.182 154.897C251.236 154.816 251.303 154.749 251.377 154.701C251.451 154.654 251.531 154.626 251.613 154.62C260.576 153.857 266.413 144.171 266.475 144.072C266.543 143.954 266.634 143.863 266.737 143.808C266.84 143.753 266.953 143.735 267.063 143.757C267.172 143.781 267.274 143.843 267.36 143.936C267.445 144.029 267.511 144.15 267.55 144.287C267.625 144.553 269.363 151.021 264.838 161.022C263.55 163.963 261.736 166.438 259.556 168.229C257.376 170.019 254.897 171.07 252.338 171.288L252.301 171.205ZM252.301 156.112L252.888 169.496C255.121 169.131 257.261 168.093 259.144 166.46C261.027 164.827 262.603 162.643 263.751 160.076C266.738 153.442 266.813 148.599 266.588 146.277C262.845 151.683 257.786 155.165 252.301 156.112V156.112Z" fill="#231F20"/>
<path d="M250 109.973C250 109.973 245.313 126.359 247.438 128.316C249.563 130.273 254.051 127.155 254.051 127.155" fill="#FCBF81"/>
<path d="M249.287 129.792C248.505 129.84 247.732 129.561 247.075 128.996C244.725 126.84 248.325 113.672 249.4 109.675C249.459 109.471 249.576 109.306 249.726 109.216C249.875 109.126 250.046 109.118 250.2 109.194C250.278 109.232 250.348 109.291 250.409 109.366C250.469 109.441 250.517 109.532 250.551 109.632C250.585 109.732 250.603 109.841 250.605 109.95C250.607 110.06 250.593 110.169 250.563 110.272C248.388 117.884 246.812 126.691 247.787 127.62C249.275 128.98 252.6 127.221 253.75 126.425C253.898 126.325 254.07 126.305 254.228 126.37C254.387 126.435 254.52 126.58 254.6 126.774C254.674 126.97 254.687 127.196 254.635 127.405C254.584 127.613 254.472 127.785 254.325 127.885C252.768 128.991 251.05 129.642 249.287 129.792V129.792Z" fill="#231F20"/>
<path d="M259.221 109.558C260.173 109.15 260.592 107.37 260.157 105.583C259.722 103.797 258.597 102.679 257.645 103.088C256.692 103.496 256.273 105.276 256.708 107.063C257.143 108.849 258.268 109.967 259.221 109.558Z" fill="#231F20"/>
<path d="M241.732 114.984C242.733 114.966 243.529 113.429 243.51 111.552C243.49 109.674 242.663 108.167 241.662 108.185C240.662 108.203 239.866 109.74 239.885 111.617C239.904 113.495 240.731 115.002 241.732 114.984Z" fill="#231F20"/>
<path d="M251.488 149.362C250.287 149.404 249.107 148.946 248.113 148.052C244.175 144.237 243.888 135.812 243.875 135.447C243.872 135.251 243.92 135.06 244.011 134.906C244.102 134.751 244.231 134.644 244.375 134.602C260.55 129.908 260.725 130.074 261.013 130.356C261.084 130.427 261.144 130.517 261.189 130.619C261.234 130.722 261.263 130.835 261.275 130.953C261.525 134.297 261.179 137.672 260.263 140.804C259.712 142.725 258.84 144.454 257.711 145.862C256.583 147.27 255.229 148.319 253.75 148.931C253.015 149.213 252.253 149.358 251.488 149.362V149.362ZM245.175 136.094C245.325 138.101 246 143.972 248.825 146.692C249.498 147.24 250.253 147.583 251.038 147.698C251.822 147.813 252.616 147.696 253.363 147.355C254.666 146.817 255.86 145.895 256.856 144.657C257.852 143.419 258.623 141.897 259.113 140.207C259.886 137.57 260.211 134.738 260.063 131.915C257.913 132.429 250.325 134.585 245.175 136.078V136.094Z" fill="#231F20"/>
<path d="M259.687 140.539C257.287 148.235 251.275 150.076 248.438 147.405C249.075 144.47 250.237 141.418 252.4 140.307C254.773 139.233 257.356 139.315 259.687 140.539V140.539Z" fill="#231F20"/>
<path d="M251.488 149.346C250.289 149.39 249.109 148.938 248.113 148.052C248.01 147.952 247.933 147.813 247.892 147.652C247.852 147.492 247.85 147.318 247.888 147.156C248.738 143.11 250.2 140.522 252.213 139.511C254.715 138.382 257.436 138.459 259.9 139.726C259.98 139.765 260.053 139.825 260.116 139.902C260.178 139.979 260.228 140.071 260.263 140.174C260.325 140.382 260.325 140.613 260.263 140.821C259.709 142.737 258.835 144.462 257.707 145.867C256.58 147.271 255.227 148.319 253.75 148.931C253.014 149.207 252.253 149.346 251.488 149.346V149.346ZM249.213 147.007C250.513 147.822 251.999 147.941 253.363 147.339C254.56 146.853 255.666 146.038 256.61 144.946C257.553 143.854 258.312 142.511 258.838 141.003C256.833 140.119 254.667 140.119 252.663 141.003C251.125 141.833 250 143.856 249.213 147.007Z" fill="#231F20"/>
<path d="M230.362 123.208C229.507 123.207 228.677 122.819 228.011 122.107C227.345 121.395 226.882 120.403 226.7 119.294L225.387 111.383C225.176 110.094 225.358 108.746 225.895 107.636C226.432 106.526 227.279 105.744 228.25 105.462L242.187 101.399C242.669 101.257 243.167 101.243 243.653 101.357C244.139 101.472 244.603 101.712 245.019 102.065C245.435 102.418 245.794 102.876 246.076 103.413C246.358 103.951 246.557 104.557 246.662 105.196L247.912 113.108C248.115 114.38 247.934 115.706 247.408 116.804C246.882 117.901 246.054 118.682 245.1 118.979V118.979L231.162 123.025C230.902 123.127 230.634 123.188 230.362 123.208V123.208ZM243 103.007C242.821 102.983 242.641 102.983 242.462 103.007L228.537 107.054C227.902 107.248 227.349 107.765 226.996 108.493C226.643 109.221 226.519 110.104 226.65 110.951L227.962 118.979C228.112 119.815 228.5 120.543 229.046 121.007C229.592 121.471 230.252 121.636 230.887 121.466L244.825 117.32C245.456 117.122 246.004 116.606 246.354 115.882C246.703 115.158 246.828 114.282 246.7 113.439L245.45 105.528C245.324 104.805 245.019 104.159 244.584 103.693C244.149 103.227 243.609 102.968 243.05 102.958L243 103.007Z" fill="#231F20"/>
<path d="M255.2 115.993C254.481 115.991 253.779 115.715 253.175 115.197C252.34 114.486 251.751 113.365 251.537 112.079L250.287 104.168C250.073 102.88 250.253 101.532 250.787 100.42C251.053 99.8665 251.398 99.3881 251.804 99.0124C252.209 98.6367 252.667 98.3711 253.15 98.2309L267.075 94.1842C267.557 94.0426 268.055 94.0285 268.541 94.1429C269.027 94.2572 269.491 94.4977 269.907 94.8505C270.323 95.2034 270.682 95.6616 270.964 96.199C271.246 96.7364 271.445 97.3424 271.55 97.9821L272.8 105.893C273.017 107.173 272.845 108.514 272.321 109.626C271.796 110.738 270.962 111.53 270 111.831L256.075 115.877C255.787 115.953 255.494 115.992 255.2 115.993ZM267.838 95.7597C267.657 95.7627 267.477 95.7905 267.3 95.8427L253.375 99.906C253.058 99.9943 252.757 100.166 252.491 100.411C252.225 100.656 251.998 100.969 251.825 101.332C251.473 102.065 251.352 102.953 251.487 103.803L252.8 111.714C252.949 112.551 253.338 113.279 253.884 113.743C254.429 114.207 255.089 114.372 255.725 114.202L269.663 110.155C270.3 109.967 270.856 109.455 271.213 108.729C271.561 107.994 271.677 107.106 271.538 106.258L270.288 98.347C270.162 97.61 269.851 96.9519 269.406 96.4814C268.96 96.0109 268.407 95.7563 267.838 95.7597Z" fill="#231F20"/>
<path d="M246.025 106.241C245.911 106.245 245.798 106.204 245.7 106.125C245.554 106.011 245.448 105.826 245.404 105.609C245.359 105.392 245.38 105.161 245.463 104.964C246.05 103.621 247.963 101.515 251.1 103.19C251.266 103.273 251.4 103.441 251.472 103.655C251.545 103.87 251.55 104.114 251.487 104.334C251.424 104.554 251.298 104.732 251.136 104.828C250.975 104.925 250.791 104.932 250.625 104.848C247.825 103.356 246.7 105.628 246.588 105.893C246.522 106.008 246.437 106.099 246.339 106.16C246.241 106.221 246.133 106.249 246.025 106.241V106.241Z" fill="#231F20"/>
<path d="M121.5 327.021H378.5L419.738 426.945H80.2627L121.5 327.021Z" fill="#F5CAC2"/>
<path d="M419.738 427.774H80.2626C80.1549 427.773 80.0492 427.736 79.9552 427.667C79.8612 427.597 79.782 427.497 79.7251 427.376C79.6725 427.249 79.645 427.106 79.645 426.961C79.645 426.817 79.6725 426.674 79.7251 426.547L120.975 326.622C121.028 326.49 121.107 326.38 121.204 326.304C121.301 326.228 121.412 326.189 121.525 326.191H378.488C378.6 326.189 378.711 326.228 378.808 326.304C378.905 326.38 378.985 326.49 379.038 326.622L420.288 426.547C420.34 426.674 420.368 426.817 420.368 426.961C420.368 427.106 420.34 427.249 420.288 427.376C420.229 427.5 420.148 427.601 420.052 427.671C419.956 427.741 419.847 427.776 419.738 427.774ZM81.3251 426.116H418.675L378.125 327.85H121.875L81.3251 426.116Z" fill="#D1D3D4"/>
<path d="M125.488 262.555L126.038 259.404C127.288 256.253 128.675 254.13 131.9 254.13H254.238C255.717 254.133 257.155 254.771 258.338 255.949C259.521 257.127 260.385 258.781 260.8 260.664L280.688 351.318C281.201 353.261 281.136 355.392 280.507 357.275C279.878 359.157 278.731 360.651 277.3 361.451L275.138 362.131L125.488 262.555Z" fill="#141850"/>
<path d="M275.138 362.96C275.043 362.956 274.95 362.928 274.863 362.877L125.213 263.268C125.086 263.186 124.985 263.049 124.926 262.88C124.867 262.711 124.853 262.52 124.888 262.339L125.438 259.188C125.432 259.116 125.432 259.044 125.438 258.972C126.688 255.97 128.125 253.267 131.85 253.267H254.188C255.801 253.276 257.369 253.974 258.659 255.259C259.949 256.544 260.893 258.346 261.35 260.399L281.25 351.168C281.809 353.31 281.733 355.655 281.036 357.725C280.34 359.795 279.075 361.435 277.5 362.313L275.263 363.026L275.138 362.96ZM126.25 262.107L275.263 361.252L277.2 360.655C280.213 359.096 280.838 354.833 280.125 351.55L260.238 260.896C259.856 259.188 259.071 257.688 257.997 256.619C256.923 255.549 255.618 254.967 254.275 254.959H131.9C129.138 254.959 127.95 256.617 126.625 259.702L126.25 262.107Z" fill="#231F20"/>
<path d="M275.138 362.131H150.3C149.452 362.118 148.629 361.744 147.954 361.063C147.279 360.382 146.786 359.431 146.55 358.35L125.538 262.555C125.458 262.187 125.445 261.8 125.497 261.425C125.549 261.049 125.667 260.694 125.84 260.389C126.013 260.083 126.238 259.835 126.495 259.664C126.753 259.494 127.037 259.404 127.325 259.404H255.5L277.213 358.466C277.308 358.893 277.327 359.344 277.268 359.782C277.209 360.221 277.073 360.635 276.871 360.992C276.669 361.348 276.407 361.637 276.106 361.834C275.805 362.032 275.474 362.134 275.138 362.131V362.131Z" fill="#141850"/>
<path d="M275.138 362.96H150.3C149.31 362.954 148.347 362.525 147.555 361.736C146.762 360.948 146.182 359.841 145.9 358.582L124.888 262.787C124.786 262.297 124.771 261.783 124.843 261.284C124.915 260.785 125.072 260.314 125.303 259.909C125.534 259.504 125.832 259.174 126.174 258.945C126.515 258.717 126.892 258.595 127.275 258.591H255.5C255.633 258.588 255.762 258.643 255.868 258.748C255.975 258.853 256.052 259.002 256.088 259.171L277.813 358.233C277.933 358.784 277.955 359.364 277.877 359.928C277.799 360.492 277.624 361.024 277.364 361.482C277.105 361.941 276.769 362.313 276.382 362.569C275.996 362.826 275.57 362.959 275.138 362.96ZM127.275 260.233C127.085 260.237 126.898 260.298 126.728 260.412C126.559 260.527 126.411 260.691 126.297 260.892C126.182 261.094 126.104 261.328 126.068 261.575C126.031 261.823 126.038 262.079 126.088 262.322L147.088 358.117C147.294 359.035 147.719 359.841 148.297 360.414C148.876 360.988 149.578 361.299 150.3 361.301H275.138C275.379 361.303 275.618 361.231 275.835 361.09C276.052 360.949 276.241 360.743 276.388 360.489C276.529 360.235 276.624 359.941 276.665 359.63C276.706 359.319 276.693 359 276.625 358.698L255 260.233H127.275Z" fill="#231F20"/>
<path d="M254.2 321.315L246.613 364.121C246.211 366.412 245.236 368.455 243.847 369.916C242.457 371.377 240.736 372.17 238.963 372.165H160C158.815 372.164 157.645 371.808 156.578 371.123C155.512 370.437 154.575 369.441 153.84 368.208C153.104 366.975 152.588 365.538 152.33 364.003C152.072 362.468 152.079 360.875 152.35 359.345L159.038 321.315H152.5L146.1 357.388C145.617 360.165 145.612 363.052 146.086 365.832C146.56 368.612 147.501 371.215 148.838 373.447C150.175 375.678 151.874 377.481 153.809 378.72C155.744 379.96 157.864 380.605 160.013 380.607H239.025C242.227 380.604 245.335 379.17 247.847 376.538C250.36 373.905 252.131 370.226 252.875 366.095L260.8 321.315H254.2Z" fill="#141850"/>
<path d="M238.963 381.552H160C157.752 381.551 155.533 380.876 153.51 379.577C151.486 378.277 149.71 376.388 148.314 374.05C146.919 371.711 145.939 368.985 145.45 366.073C144.961 363.162 144.974 360.142 145.488 357.238L151.875 321.149C151.909 320.968 151.988 320.807 152.099 320.693C152.21 320.579 152.347 320.517 152.488 320.519H159.088C159.182 320.521 159.274 320.55 159.358 320.604C159.442 320.659 159.517 320.737 159.575 320.834C159.633 320.931 159.673 321.045 159.692 321.165C159.712 321.286 159.71 321.411 159.688 321.531L152.95 359.56C152.702 360.97 152.697 362.437 152.935 363.85C153.174 365.263 153.649 366.587 154.327 367.722C155.005 368.857 155.867 369.775 156.849 370.406C157.832 371.038 158.909 371.367 160 371.369H239.013C240.647 371.373 242.233 370.642 243.514 369.295C244.794 367.949 245.693 366.066 246.063 363.955L253.65 321.149C253.682 320.969 253.758 320.809 253.867 320.695C253.976 320.58 254.111 320.518 254.25 320.519H260.85C260.944 320.522 261.035 320.551 261.119 320.606C261.203 320.66 261.276 320.739 261.335 320.835C261.393 320.932 261.435 321.044 261.457 321.164C261.479 321.284 261.481 321.409 261.463 321.531L253.525 366.31C252.762 370.666 250.905 374.549 248.258 377.319C245.612 380.088 242.334 381.581 238.963 381.552V381.552ZM152.925 322.178L146.675 357.62C146.201 360.283 146.188 363.055 146.637 365.726C147.087 368.397 147.986 370.898 149.269 373.042C150.551 375.186 152.183 376.916 154.042 378.103C155.9 379.289 157.938 379.901 160 379.893H239.013C242.095 379.905 245.09 378.529 247.506 375.989C249.922 373.449 251.617 369.896 252.313 365.912L260.063 322.178H254.75L247.25 364.337C246.822 366.815 245.77 369.026 244.268 370.605C242.767 372.185 240.904 373.039 238.988 373.027H160C158.72 373.028 157.456 372.643 156.303 371.904C155.15 371.164 154.139 370.088 153.344 368.756C152.549 367.423 151.992 365.87 151.713 364.211C151.435 362.553 151.444 360.832 151.738 359.179L158.288 322.178H152.925Z" fill="#231F20"/>
<path d="M356.025 234.029C356.025 234.029 367.2 299.871 358.05 316.688C348.9 333.505 285 330.852 285 330.852C285 330.852 274.638 347.354 265.638 346.259C256.638 345.164 261.888 322.576 272.475 313.172L271.013 305.327L327.35 293.336L319.85 246.02" fill="#FCBF81"/>
<path d="M266.463 347.138C266.154 347.138 265.842 347.138 265.525 347.138C264.36 347.061 263.248 346.474 262.361 345.469C261.475 344.463 260.864 343.097 260.625 341.582C259.213 334.235 263.738 320.221 271.7 312.857L270.35 305.576C270.328 305.467 270.323 305.354 270.336 305.242C270.349 305.131 270.379 305.024 270.425 304.929C270.472 304.832 270.534 304.749 270.608 304.686C270.681 304.623 270.764 304.582 270.85 304.564L326.538 292.706L319.163 246.268C319.146 246.162 319.146 246.052 319.161 245.945C319.177 245.838 319.208 245.736 319.253 245.645C319.299 245.554 319.357 245.476 319.425 245.415C319.493 245.354 319.57 245.312 319.65 245.29C319.73 245.265 319.812 245.263 319.893 245.281C319.973 245.3 320.05 245.34 320.119 245.399C320.188 245.457 320.247 245.534 320.293 245.623C320.339 245.713 320.371 245.814 320.388 245.92L327.888 293.237C327.906 293.348 327.906 293.463 327.889 293.574C327.872 293.686 327.837 293.791 327.788 293.884C327.74 293.976 327.68 294.055 327.609 294.115C327.538 294.175 327.458 294.215 327.375 294.232L271.713 306.09L272.963 313.056C272.995 313.219 272.988 313.391 272.943 313.548C272.898 313.706 272.818 313.841 272.713 313.935C265.063 320.735 260.475 334.417 261.788 341.217C261.956 342.389 262.418 343.452 263.099 344.231C263.78 345.011 264.639 345.463 265.538 345.513C274.1 346.574 284.288 330.586 284.363 330.404C284.423 330.307 284.5 330.23 284.587 330.178C284.673 330.126 284.768 330.101 284.863 330.105C285.5 330.105 348.613 332.543 357.438 316.273C366.263 300.004 355.438 235.007 355.325 234.294C355.307 234.185 355.305 234.073 355.32 233.963C355.335 233.853 355.366 233.748 355.411 233.654C355.456 233.56 355.515 233.479 355.584 233.415C355.653 233.351 355.73 233.306 355.813 233.282C355.895 233.258 355.979 233.256 356.062 233.276C356.145 233.295 356.224 233.336 356.295 233.396C356.366 233.456 356.427 233.534 356.475 233.626C356.523 233.717 356.557 233.82 356.575 233.929C357.038 236.632 367.7 300.269 358.488 317.252C349.488 333.837 290.5 331.979 285.163 331.764C283.75 333.953 274.838 347.138 266.463 347.138Z" fill="#231F20"/>
<path d="M288.988 201.423C288.891 201.421 288.797 201.386 288.713 201.323C288.636 201.277 288.567 201.211 288.51 201.128C288.454 201.046 288.41 200.949 288.382 200.844C288.354 200.739 288.342 200.627 288.347 200.516C288.353 200.404 288.375 200.295 288.413 200.195C297.488 175.318 320.788 158.584 321.025 158.418C321.099 158.363 321.18 158.329 321.264 158.317C321.347 158.305 321.432 158.316 321.513 158.348C321.593 158.381 321.668 158.435 321.732 158.506C321.797 158.578 321.85 158.667 321.888 158.766C321.929 158.865 321.955 158.974 321.964 159.086C321.974 159.198 321.966 159.312 321.941 159.42C321.917 159.528 321.876 159.629 321.822 159.716C321.768 159.803 321.701 159.875 321.625 159.927C321.4 160.093 298.463 176.512 289.575 200.942C289.52 201.086 289.436 201.207 289.333 201.292C289.229 201.377 289.11 201.422 288.988 201.423V201.423Z" fill="#231F20"/>
<path d="M250.463 200.245C250.372 200.27 250.278 200.27 250.188 200.245C228.412 186.977 225.775 157.821 225.75 157.539C225.732 157.312 225.783 157.086 225.891 156.909C225.998 156.732 226.155 156.618 226.325 156.593C226.409 156.58 226.494 156.588 226.575 156.618C226.657 156.648 226.733 156.699 226.799 156.769C226.865 156.838 226.92 156.925 226.961 157.023C227.002 157.121 227.028 157.228 227.037 157.34C227.037 157.622 229.638 185.833 250.788 198.537C250.942 198.631 251.063 198.802 251.124 199.013C251.184 199.223 251.18 199.458 251.113 199.665C251.065 199.84 250.976 199.992 250.859 200.096C250.742 200.2 250.603 200.253 250.463 200.245V200.245Z" fill="#231F20"/>
<path d="M151.25 237.843C151.114 237.792 150.995 237.683 150.91 237.533C150.825 237.384 150.779 237.201 150.779 237.014C150.779 236.827 150.825 236.644 150.91 236.495C150.995 236.345 151.114 236.236 151.25 236.185C160.675 235.803 165.25 228.738 165.3 228.672C165.353 228.585 165.419 228.514 165.493 228.461C165.567 228.409 165.648 228.376 165.732 228.365C165.816 228.355 165.9 228.366 165.98 228.398C166.061 228.431 166.136 228.485 166.2 228.556C166.332 228.701 166.416 228.91 166.432 229.137C166.449 229.364 166.397 229.59 166.288 229.766C166.088 230.081 161.288 237.495 151.288 237.893L151.25 237.843Z" fill="#231F20"/>
<path d="M319.775 246.865C319.632 246.867 319.491 246.804 319.378 246.686C319.264 246.569 319.184 246.404 319.15 246.219C319.15 245.92 313.263 215.354 312.45 197.028C312.445 196.916 312.457 196.805 312.484 196.7C312.512 196.595 312.554 196.498 312.61 196.414C312.666 196.331 312.734 196.263 312.809 196.215C312.885 196.167 312.967 196.138 313.05 196.132C313.221 196.118 313.388 196.194 313.517 196.343C313.646 196.492 313.725 196.702 313.738 196.928C314.55 215.089 320.35 245.489 320.4 245.804C320.442 246.024 320.417 246.257 320.331 246.452C320.244 246.648 320.103 246.79 319.938 246.849L319.775 246.865Z" fill="#231F20"/>
<path d="M219.025 252.322C218.94 252.316 218.857 252.287 218.781 252.237C218.705 252.188 218.636 252.118 218.581 252.033C218.525 251.948 218.482 251.849 218.455 251.742C218.429 251.635 218.419 251.522 218.425 251.41L221.525 186.977C221.53 186.864 221.552 186.754 221.589 186.653C221.626 186.551 221.679 186.461 221.743 186.387C221.807 186.313 221.881 186.256 221.962 186.221C222.043 186.185 222.128 186.172 222.213 186.181C222.297 186.185 222.38 186.212 222.456 186.26C222.533 186.307 222.601 186.375 222.657 186.459C222.713 186.542 222.756 186.64 222.783 186.746C222.809 186.853 222.82 186.965 222.813 187.077L219.663 251.509C219.656 251.728 219.586 251.934 219.468 252.086C219.349 252.237 219.19 252.322 219.025 252.322Z" fill="#231F20"/>
<path d="M329.7 216.283C329.584 216.284 329.47 216.244 329.371 216.165C329.272 216.085 329.191 215.971 329.138 215.835L323.088 200.908C323.02 200.691 323.02 200.446 323.088 200.228C323.146 200.006 323.267 199.821 323.425 199.714L342.175 187.956C342.251 187.905 342.334 187.875 342.419 187.868C342.504 187.861 342.589 187.876 342.67 187.913C342.75 187.95 342.824 188.008 342.887 188.084C342.95 188.16 343.002 188.251 343.038 188.354C343.111 188.558 343.121 188.793 343.065 189.007C343.008 189.222 342.891 189.398 342.738 189.498L324.563 200.875L330.038 214.342L348.45 206.879C348.532 206.846 348.618 206.835 348.704 206.847C348.789 206.858 348.872 206.892 348.947 206.946C349.022 207 349.089 207.073 349.143 207.161C349.197 207.249 349.238 207.351 349.263 207.459C349.287 207.568 349.296 207.683 349.287 207.796C349.278 207.909 349.253 208.019 349.212 208.119C349.172 208.219 349.116 208.307 349.05 208.379C348.984 208.451 348.907 208.505 348.825 208.537L329.888 216.299L329.7 216.283Z" fill="white"/>
<path d="M345.938 405.534C362.983 405.534 376.8 400.017 376.8 393.211C376.8 386.405 362.983 380.888 345.938 380.888C328.893 380.888 315.075 386.405 315.075 393.211C315.075 400.017 328.893 405.534 345.938 405.534Z" fill="#ED7966"/>
<path d="M345.938 406.363C328.288 406.363 314.45 400.591 314.45 393.211C314.45 385.831 328.288 380.059 345.938 380.059C363.588 380.059 377.425 385.831 377.425 393.211C377.425 400.591 363.588 406.363 345.938 406.363ZM345.938 381.718C327.85 381.718 315.7 387.655 315.7 393.211C315.7 398.767 327.85 404.704 345.938 404.704C364.025 404.704 376.175 398.767 376.175 393.211C376.175 387.655 364.025 381.718 345.938 381.718V381.718Z" fill="#D1D3D4"/>
<path d="M322.675 358.018L321.938 358.2C319.707 358.642 317.678 360.159 316.238 362.463C315.431 364.099 314.985 366.003 314.952 367.958C314.919 369.913 315.3 371.842 316.05 373.525C319.325 381.353 327.3 383.476 333.45 384.288C334.321 384.476 335.212 384.385 336.05 384.023C336.464 383.835 336.824 383.483 337.081 383.014C337.339 382.545 337.481 381.983 337.488 381.403C337.435 380.926 337.293 380.474 337.075 380.089C336.856 379.703 336.569 379.397 336.238 379.197C335.594 378.801 334.906 378.543 334.2 378.434C330.375 377.605 326.35 376.991 322.85 374.653C320.813 373.276 317.963 370.141 319.45 366.758C319.971 365.687 320.719 364.844 321.6 364.337C325.113 362.114 328.45 363.806 331.913 365.166C332.165 365.288 332.433 365.339 332.7 365.315C333.031 365.194 333.317 364.916 333.504 364.534C333.691 364.152 333.765 363.692 333.713 363.242C333.6 361.235 332.088 359.925 330.663 359.179C328.118 357.897 325.369 357.497 322.675 358.018V358.018Z" fill="#ED7966"/>
<path d="M334.488 385.2C334.124 385.198 333.761 385.171 333.4 385.117C324.013 383.94 318.163 380.291 315.5 373.923C314.689 372.101 314.281 370.013 314.323 367.898C314.365 365.784 314.855 363.727 315.738 361.965C317.271 359.502 319.433 357.873 321.813 357.387L322.588 357.205C325.403 356.648 328.279 357.065 330.938 358.416C332.188 359.029 334.225 360.472 334.388 363.176C334.451 363.837 334.327 364.506 334.041 365.054C333.755 365.602 333.326 365.99 332.838 366.144C332.482 366.176 332.125 366.114 331.788 365.962L330.888 365.597C327.813 364.353 324.913 363.192 321.925 365.083C321.151 365.518 320.493 366.251 320.038 367.189C319.875 367.531 319.769 367.915 319.728 368.316C319.687 368.716 319.712 369.124 319.8 369.511C320.486 371.471 321.686 373.033 323.175 373.906C326.279 375.698 329.571 376.85 332.938 377.322L334.35 377.621C335.126 377.734 335.883 378.02 336.588 378.467C337.09 378.717 337.518 379.175 337.809 379.774C338.1 380.372 338.238 381.078 338.203 381.788C338.168 382.499 337.961 383.175 337.614 383.718C337.267 384.261 336.798 384.641 336.275 384.802C335.702 385.078 335.097 385.213 334.488 385.2ZM322.775 358.847L322.063 359.013C319.987 359.423 318.094 360.82 316.738 362.943C316 364.454 315.596 366.209 315.572 368.009C315.548 369.809 315.904 371.582 316.6 373.126C319.038 378.964 324.575 382.348 333.513 383.459C334.281 383.627 335.067 383.559 335.813 383.26C336.103 383.13 336.357 382.889 336.544 382.567C336.731 382.245 336.842 381.857 336.863 381.452C336.822 381.122 336.721 380.81 336.569 380.544C336.416 380.278 336.217 380.066 335.988 379.926C335.406 379.574 334.786 379.35 334.15 379.263L332.738 378.964C329.243 378.471 325.828 377.263 322.613 375.382C320.813 374.317 319.38 372.393 318.6 369.992C318.463 369.384 318.424 368.745 318.487 368.116C318.549 367.487 318.712 366.883 318.963 366.343C319.542 365.12 320.387 364.16 321.388 363.59C324.813 361.418 328.088 362.728 331.25 364.005L332.15 364.37C332.318 364.451 332.496 364.491 332.675 364.486C332.975 364.486 333.163 363.806 333.138 363.308C333.038 361.451 331.25 360.356 330.488 359.991C328.032 358.746 325.375 358.364 322.775 358.88V358.847Z" fill="#ED7966"/>
<path d="M325.562 349.626C325.562 349.626 331.338 387.871 331.812 390.176C332.287 392.481 345.938 401.951 356.812 392.647L366.325 353.556L325.562 349.626Z" fill="#ED7966"/>
<path d="M346.175 397.507C342.908 397.471 339.672 396.651 336.625 395.085C334.225 393.858 331.5 391.868 331.2 390.392C330.737 388.086 325.187 351.367 324.95 349.792C324.927 349.667 324.927 349.537 324.951 349.413C324.974 349.289 325.019 349.174 325.083 349.078C325.147 348.982 325.227 348.908 325.317 348.862C325.407 348.815 325.504 348.799 325.6 348.813L366.362 352.827C366.458 352.833 366.55 352.868 366.633 352.93C366.717 352.992 366.788 353.078 366.841 353.183C366.894 353.287 366.929 353.407 366.941 353.533C366.953 353.658 366.944 353.785 366.912 353.905L357.4 392.995C357.353 393.176 357.26 393.328 357.137 393.427C353.862 396.177 350.051 397.595 346.175 397.507V397.507ZM326.337 350.538C327.275 356.757 332 387.92 332.412 389.96C332.587 390.508 334.837 392.73 338.825 394.339C342.575 395.848 349.75 397.556 356.325 392.116L365.525 354.319L326.337 350.538Z" fill="#231F20"/>
<path d="M366.423 351.856C366.624 345.376 357.644 339.626 346.366 339.012C335.088 338.398 325.783 343.153 325.583 349.632C325.382 356.112 334.362 361.862 345.64 362.476C356.918 363.09 366.223 358.335 366.423 351.856Z" fill="#231F20"/>
<path d="M347.588 363.358C346.925 363.358 346.263 363.358 345.6 363.358C333.788 362.728 324.713 356.724 324.938 349.659C325.163 342.594 334.575 337.618 346.375 338.265C358.175 338.912 367.25 344.899 367.025 351.964C366.925 355.447 364.525 358.598 360.388 360.655C356.278 362.569 351.942 363.485 347.588 363.358V363.358ZM344.45 339.791C334.538 339.791 326.35 344.103 326.175 349.742C326 355.646 334.925 361.136 345.65 361.716C350.52 362.093 355.397 361.185 360 359.046C363.625 357.205 365.75 354.568 365.838 351.831C366.025 345.911 357.088 340.421 346.375 339.841L344.45 339.791Z" fill="#231F20"/>
<path d="M297.088 243.366H230.95C230.784 243.366 230.625 243.279 230.508 243.123C230.391 242.968 230.325 242.757 230.325 242.537V216.631C230.328 216.412 230.395 216.204 230.512 216.049C230.628 215.895 230.785 215.806 230.95 215.802H297.088C297.253 215.802 297.412 215.889 297.53 216.045C297.647 216.2 297.713 216.411 297.713 216.631V242.586C297.703 242.798 297.633 242.996 297.517 243.141C297.401 243.286 297.247 243.366 297.088 243.366V243.366ZM231.575 241.707H296.463V217.46H231.575V241.707Z" fill="white"/>
<path d="M419.725 426.945H80.2627V444.309H419.725V426.945Z" fill="#F5CAC2"/>
<path d="M419.738 445.138H80.2627C80.0969 445.138 79.938 445.051 79.8208 444.896C79.7035 444.74 79.6377 444.529 79.6377 444.309V426.945C79.6409 426.726 79.7078 426.518 79.8243 426.363C79.9408 426.208 80.0979 426.12 80.2627 426.115H419.738C419.902 426.12 420.06 426.208 420.176 426.363C420.293 426.518 420.36 426.726 420.363 426.945V444.309C420.363 444.529 420.297 444.74 420.18 444.896C420.062 445.051 419.903 445.138 419.738 445.138ZM80.8877 443.48H419.113V427.774H80.8877V443.48Z" fill="#D1D3D4"/>
<path d="M366.313 264.777C366.148 264.768 365.992 264.676 365.878 264.518C365.764 264.36 365.7 264.15 365.7 263.931C365.7 262.024 366.613 217.062 370.35 201.489C374.088 185.916 381.1 179.431 381.388 179.182C381.525 179.059 381.694 179.013 381.857 179.055C382.02 179.097 382.164 179.223 382.256 179.406C382.349 179.588 382.384 179.812 382.352 180.029C382.32 180.245 382.225 180.435 382.088 180.559C382.013 180.559 375.175 186.844 371.538 201.986C367.9 217.128 366.963 263.5 366.95 263.964C366.949 264.073 366.931 264.181 366.898 264.28C366.865 264.38 366.818 264.47 366.758 264.546C366.699 264.621 366.629 264.681 366.553 264.72C366.476 264.76 366.395 264.779 366.313 264.777Z" fill="white"/>
</svg>
