<svg width="2531" height="1746" viewBox="0 0 2131 1746" fill="none" xmlns="http://www.w3.org/2000/svg">
<rect width="2131" height="1746" fill="white"/>
<path d="M1009.93 1683.81L85.2404 1090.01C55.7794 1072.05 30.527 1042.52 59.2422 1023.17L987.293 441.825C1001.2 432.443 1022.35 426.304 1036.52 435.223L2007.14 1047.61C2036.6 1066.2 2041.87 1118.09 2012.46 1136.69L1131.83 1683.17C1113.31 1694.78 1092.33 1700.95 1070.96 1701.06C1049.58 1701.17 1028.55 1695.23 1009.93 1683.81Z" fill="#F5CAC2"/>
<path d="M834.073 1157.82L1071.41 1060.12L1267.95 1157.88L1046.59 1304.12C996.562 1268.73 882.554 1195.47 834.073 1157.82Z" fill="#FAE5DF"/>
<path d="M573.878 1293.87L800.35 1172.25L971.523 1285.24L750.165 1415.02C700.193 1379.87 622.358 1331.51 573.878 1293.87Z" fill="#FAE5DF"/>
<path d="M1168.59 1020.51L1009.56 1085.37C1009.56 1085.37 1002.9 1090.06 1007.16 1101.3C1009.61 1107.73 1022.77 1116.99 1022.77 1116.99L1160.06 1203.87C1167.57 1207.5 1175.55 1209.85 1183.72 1210.82C1194.69 1211.51 1213.07 1201.84 1213.07 1201.84L1340.93 1121.34L1168.59 1020.51Z" fill="#34323D"/>
<path d="M1166.35 1012.46L1014.41 1079.99C1014.41 1079.99 1003.75 1086.3 1006.58 1094.87C1009.62 1101.24 1014.35 1106.47 1020.16 1109.87L1157.83 1195.87C1165.33 1199.51 1173.31 1201.86 1181.48 1202.82C1192.45 1203.52 1210.83 1193.85 1210.83 1193.85L1331.87 1119.02L1166.35 1012.46Z" fill="#141850"/>
<path opacity="0.45" d="M1166.35 1012.46L1014.41 1079.99C1014.41 1079.99 1003.75 1086.3 1006.58 1094.87C1009.62 1101.24 1014.35 1106.47 1020.16 1109.87L1157.83 1195.87C1165.33 1199.51 1173.31 1201.86 1181.48 1202.82C1192.45 1203.52 1210.83 1193.85 1210.83 1193.85L1331.87 1119.02L1166.35 1012.46Z" fill="#141850"/>
<path d="M1525.69 1239.77C1528.59 1241.11 1531.8 1241.41 1534.87 1240.6C1537.93 1239.8 1540.67 1237.94 1542.68 1235.31C1542.68 1235.31 1545.67 1234.68 1545.67 1220.49V561.94C1545.51 556.243 1544.24 550.648 1541.95 545.518C1539.67 540.389 1536.41 535.841 1532.4 532.172C1517.55 520.869 1502.07 510.579 1486.05 501.361L812.977 78.9895L805.411 74.8196C802.863 73.4436 799.945 73.1076 797.188 73.8728C794.431 74.6381 792.018 76.4537 790.388 78.9895C788.415 82.6383 787.282 86.7509 787.085 90.9778C786.819 97.8697 787.085 164.414 787.085 164.414V756.881C787.084 762.569 788.173 768.195 790.282 773.4C792.392 778.605 795.476 783.275 799.338 787.113L1525.69 1239.77Z" fill="#141850"/>
<path d="M1533.31 1139.99V571.844C1533.31 552.963 1530.91 542.423 1517.33 534.546L807.436 87.4449C806.038 86.3156 804.379 85.6316 802.644 85.4696C800.909 85.3076 799.167 85.6741 797.613 86.5278C796.059 87.3816 794.754 88.689 793.845 90.3035C792.936 91.918 792.458 93.7759 792.465 95.6688L794.224 679.912L1533.31 1139.99Z" fill="white"/>
<path d="M1615.62 1133.62L1766.07 1060.35L1848.64 1126.96L1722.22 1206.65C1691.85 1185.28 1644.87 1156.14 1615.62 1133.62Z" fill="#FAE5DF"/>
<path d="M1484.45 577.172V773.329L1353.88 691.032L1354.78 495.28L1484.45 577.172Z" fill="#FAE5DF"/>
<path d="M1321.43 479.238V675.395L1190.86 593.04L1191.76 397.347L1321.43 479.238Z" fill="#F5CAC2"/>
<path d="M1155.43 376.15V572.307L1024.85 489.952L1025.7 294.258L1155.43 376.15Z" fill="#F78B72"/>
<path opacity="0.79" d="M982.178 269.008V465.165L851.601 382.868L852.453 187.116L982.178 269.008Z" fill="#303179"/>
<path d="M1488.5 820.066L1194.9 638.793C1193.08 637.731 1190.95 637.48 1188.96 638.092C1186.97 638.704 1185.27 640.133 1184.23 642.076C1183.19 644.019 1182.88 646.326 1183.37 648.512C1183.86 650.697 1185.11 652.59 1186.86 653.793L1480.46 835.066C1482.28 836.128 1484.42 836.379 1486.41 835.767C1488.4 835.154 1490.09 833.726 1491.13 831.783C1492.18 829.84 1492.48 827.532 1491.99 825.347C1491.5 823.162 1490.25 821.269 1488.5 820.066Z" fill="#FBB03B"/>
<path d="M1482.75 874.1L1189.15 692.827C1187.33 691.766 1185.19 691.514 1183.2 692.127C1181.21 692.739 1179.52 694.167 1178.48 696.11C1177.43 698.054 1177.12 700.361 1177.62 702.546C1178.11 704.732 1179.36 706.625 1181.11 707.827L1474.71 889.1C1476.53 890.162 1478.66 890.413 1480.65 889.801C1482.64 889.189 1484.34 887.761 1485.38 885.817C1486.42 883.874 1486.73 881.567 1486.24 879.382C1485.75 877.196 1484.5 875.303 1482.75 874.1V874.1Z" fill="#FBB03B"/>
<path d="M1479.34 925.702L1185.74 744.429C1183.92 743.367 1181.79 743.116 1179.79 743.728C1177.8 744.341 1176.11 745.769 1175.07 747.712C1174.02 749.656 1173.72 751.963 1174.21 754.148C1174.7 756.333 1175.95 758.227 1177.7 759.429L1471.3 940.702C1473.12 941.764 1475.25 942.015 1477.24 941.403C1479.23 940.791 1480.93 939.363 1481.97 937.419C1483.01 935.476 1483.32 933.169 1482.83 930.984C1482.34 928.798 1481.09 926.905 1479.34 925.702V925.702Z" fill="#FBB03B"/>
<path d="M1086.68 719.95C1114.06 712.02 1128.18 672.618 1118.21 631.944C1108.24 591.271 1077.96 564.727 1050.58 572.658C1023.2 580.588 1009.09 619.99 1019.06 660.664C1029.03 701.337 1059.3 727.881 1086.68 719.95Z" fill="#ED7966"/>
<path d="M909.558 628.242C936.937 620.311 951.05 580.91 941.081 540.236C931.111 499.562 900.835 473.019 873.455 480.949C846.076 488.88 831.963 528.281 841.933 568.955C851.902 609.629 882.179 636.172 909.558 628.242Z" fill="#FB9C4D"/>
<path d="M820.861 1188.75C820.861 1188.75 853.093 1173.17 860.871 1172.53C868.649 1171.9 881.595 1174.79 870.301 1190.26C870.301 1190.26 836.418 1214.35 831.943 1215.1C827.468 1215.86 816.599 1212.15 816.333 1213.42C816.067 1214.7 815.054 1224.02 815.054 1224.02C815.054 1224.02 786.712 1235.6 785.487 1215.16C785.487 1212.5 789.589 1174.21 789.589 1174.21" fill="#E55600"/>
<path d="M783.889 1098.4C789.483 1058.79 799.871 1020.39 804.027 980.316C806.691 955.123 808.609 929.756 811.485 904.563C814.362 879.371 822.993 854.988 828.533 830.027C828.677 829.447 828.64 828.831 828.428 828.275C828.216 827.72 827.841 827.257 827.361 826.958C827.361 826.089 827.841 825.22 828.107 824.352C830.984 821.398 833.914 818.56 836.738 815.896L876.374 844.853C876.374 844.853 876.374 871.205 874.883 909.486C870.301 931.783 866.785 951.648 861.564 972.787C862.116 973.464 862.514 974.273 862.727 975.148C862.94 976.023 862.961 976.94 862.789 977.826C849.898 1044.37 840.506 1111.66 834.66 1179.37C834.586 1180.49 834.215 1181.56 833.59 1182.46C832.966 1183.35 832.116 1184.03 831.144 1184.41L830.025 1194.83C795.556 1209.31 787.991 1184.12 787.991 1184.12C787.991 1184.12 786.446 1162.63 784.475 1132.86C783.782 1121.28 783.623 1109.87 783.889 1098.4Z" fill="#303179"/>
<path d="M1028.21 685.53L1029.11 685.878C1028.69 685.276 1028.4 684.573 1028.27 683.826C1028.14 683.079 1028.17 682.309 1028.37 681.58C1028.57 680.851 1028.92 680.183 1029.4 679.631C1029.88 679.08 1030.48 678.66 1031.14 678.407C1033.06 677.712 1035.03 677.132 1037 676.437C1037.15 676.186 1037.33 675.953 1037.53 675.743C1038.17 675.123 1038.86 674.579 1039.61 674.121C1039.96 673.546 1040.43 673.075 1040.99 672.751C1041.55 672.427 1042.17 672.261 1042.81 672.268H1044.3C1045.95 671.862 1047.65 671.515 1049.62 671.109L1055.64 669.661C1055.83 669.064 1056.12 668.513 1056.5 668.04C1064.8 657.2 1072.36 645.723 1079.14 633.696C1081.59 629.642 1088.52 632.075 1086.81 637.171C1085.23 642.92 1083.18 648.503 1080.68 653.851C1089.58 644.005 1094.43 641.804 1102.53 631.148C1105.99 626.631 1111.85 633.117 1108.44 637.577C1106.36 640.299 1098.16 647.191 1096.08 649.855C1100.08 645.859 1110.2 637.635 1114.25 633.696C1118.3 629.758 1124.21 636.245 1120.16 640.125C1113.7 646.38 1107.32 652.731 1101.03 659.179C1106.74 655.357 1112.33 651.36 1117.76 647.075C1122.13 643.6 1126.29 651.534 1121.97 654.951C1115.74 659.874 1109.29 664.449 1102.69 668.735C1106.85 667.797 1110.95 666.519 1114.94 664.912C1119.95 662.77 1122.13 671.573 1117.18 673.715C1113.07 675.453 1108.81 676.901 1104.6 678.349L1098.26 680.549C1095.78 681.275 1093.41 682.408 1091.23 683.908C1082.99 689.43 1074 693.514 1064.59 696.013L1062.84 697.171C1062.28 697.511 1061.66 697.69 1061.03 697.69C1060.39 697.69 1059.77 697.511 1059.21 697.171C1048.1 699.572 1036.59 698.57 1025.97 694.275C1021.02 692.306 1022.88 683.503 1028.21 685.53Z" fill="#FCBF81"/>
<path d="M905.142 611.747C906.69 609.876 908.364 608.134 910.15 606.534C910.116 606.667 910.116 606.807 910.15 606.94C910.115 607.121 910.133 607.31 910.204 607.479C910.274 607.648 910.392 607.788 910.541 607.879C910.69 607.969 910.862 608.006 911.031 607.983C911.2 607.96 911.358 607.878 911.482 607.751L914.785 605.029C914.591 605.467 914.465 605.936 914.412 606.419C914.299 607.358 914.517 608.309 915.02 609.082C915.524 609.854 916.277 610.393 917.129 610.589C917.619 610.746 918.135 610.782 918.639 610.693C919.143 610.605 919.623 610.395 920.042 610.078C920.462 609.761 920.81 609.345 921.062 608.863C921.314 608.38 921.463 607.841 921.498 607.287L922.883 606.419C922.828 606.802 922.828 607.193 922.883 607.577C922.875 608.13 922.996 608.677 923.233 609.166C923.471 609.656 923.818 610.073 924.242 610.378C924.666 610.684 925.155 610.869 925.662 610.915C926.169 610.962 926.679 610.87 927.145 610.646L928.583 609.951C928.826 610.219 929.117 610.429 929.438 610.569C929.758 610.709 930.102 610.774 930.448 610.762C933.579 610.813 936.71 610.658 939.824 610.299C939.663 610.139 939.541 609.939 939.467 609.716C939.394 609.493 939.372 609.254 939.404 609.019C939.435 608.785 939.519 608.563 939.648 608.372C939.777 608.181 939.948 608.027 940.144 607.924C944.193 606.377 948.342 605.157 952.557 604.276H953.036L953.356 603.986C955.108 601.423 955.924 598.246 955.647 595.067C956.845 594.281 957.864 593.211 958.629 591.938C959.395 590.665 959.887 589.22 960.069 587.712C959.801 587.576 959.577 587.354 959.429 587.075C959.074 586.41 958.822 585.686 958.684 584.932C958.345 583.852 958.183 582.715 958.204 581.573C958.214 581.3 958.301 581.037 958.454 580.819C958.606 580.601 958.817 580.44 959.057 580.357C958.364 577.983 957.458 575.608 956.606 573.465C961.843 568.674 965.661 562.307 967.581 555.164C967.773 554.498 967.762 553.781 967.549 553.122C967.337 552.463 966.934 551.896 966.401 551.505C965.868 551.115 965.234 550.922 964.592 550.955C963.95 550.988 963.335 551.246 962.839 551.689C960.831 553.49 958.927 555.424 957.139 557.481C956.722 557.586 956.337 557.805 956.02 558.118C946.495 568.356 936.465 578.023 925.973 587.075C924.215 588.581 903.491 604.102 904.663 605.202C904.237 605.434 883.406 629.758 905.142 611.747ZM916.277 605.955C916.311 606.076 916.369 606.186 916.446 606.28C916.524 606.373 916.619 606.447 916.725 606.497C916.832 606.547 916.947 606.57 917.063 606.567C917.178 606.563 917.292 606.533 917.396 606.477C917.649 606.88 917.981 607.219 918.367 607.469C918.754 607.719 919.186 607.875 919.633 607.924C919.428 608.439 919.044 608.844 918.564 609.05C918.085 609.257 917.549 609.248 917.076 609.025C916.603 608.802 916.23 608.384 916.04 607.863C915.85 607.341 915.859 606.76 916.064 606.245L916.277 605.955Z" fill="#FCBF81"/>
<path d="M908.819 605.666C912.709 604.294 916.324 602.132 919.474 599.295C920.092 598.692 920.815 598.23 921.6 597.935C922.385 597.64 923.217 597.518 924.045 597.578C924.874 597.637 925.684 597.876 926.427 598.28C927.169 598.685 927.83 599.246 928.371 599.932C929.129 598.342 929.788 596.697 930.342 595.009C930.99 593.349 932.194 592.018 933.71 591.285C935.226 590.552 936.941 590.471 938.509 591.059C940.078 591.647 941.383 592.86 942.161 594.453C942.939 596.046 943.132 597.901 942.701 599.643C940.772 606.537 936.918 612.609 931.674 617.017C926.268 620.713 920.295 623.322 914.04 624.72C912.953 624.92 911.837 624.827 910.791 624.447C909.745 624.068 908.801 623.414 908.042 622.544C907.284 621.674 906.735 620.614 906.442 619.458C906.15 618.302 906.125 617.086 906.368 615.917L905.995 615.222C905.225 613.543 905.089 611.604 905.616 609.818C906.144 608.033 907.293 606.542 908.819 605.666V605.666Z" fill="#FCBF81"/>
<path d="M926.985 618.175C933.315 616.518 938.868 612.398 942.594 606.592C942.613 606.7 942.652 606.803 942.708 606.893C942.764 606.984 942.837 607.062 942.922 607.122C943.006 607.181 943.101 607.221 943.201 607.24C943.3 607.258 943.402 607.255 943.5 607.229L949.573 605.55C950.822 605.292 952.027 604.823 953.143 604.16C955.753 602.365 955.007 598.89 955.007 595.994C955.056 595.824 955.056 595.642 955.007 595.473L956.073 594.488C957.915 593.043 959.308 591.023 960.068 588.697C960.495 586.264 959.003 583.948 958.683 581.573C959.201 580.474 959.382 579.224 959.2 578.005C959.018 576.786 958.482 575.662 957.671 574.797C955.487 572.481 953.302 574.102 951.225 575.666C946.75 578.986 942.381 582.481 938.119 586.149C937.267 586.844 938.119 588.176 939.184 587.481C941.493 585.511 943.837 583.581 946.217 581.689C948.407 579.37 950.903 577.418 953.622 575.898C960.228 574.566 956.446 582.384 954.901 584.179C953.356 585.975 952.929 586.149 951.917 587.075L945.151 593.446C945.066 593.524 944.998 593.621 944.952 593.731C944.906 593.842 944.883 593.962 944.885 594.083C944.505 599.435 942.549 604.512 939.305 608.56C936.061 612.608 931.703 615.411 926.878 616.554C925.546 616.959 925.866 618.697 926.985 618.175ZM947.069 595.009C946.944 594.915 946.795 594.864 946.643 594.864C946.491 594.864 946.342 594.915 946.217 595.009C946.217 595.009 946.217 594.604 946.217 594.43C950.347 591.252 954.104 587.537 957.405 583.369C957.405 584.064 957.831 584.701 958.044 585.454C958.347 586.476 958.362 587.574 958.087 588.606C957.812 589.638 957.258 590.557 956.499 591.245C954.528 593.62 949.626 598.89 946.909 595.473L947.069 595.009ZM943.233 605.029C944.652 602.385 945.61 599.479 946.057 596.457C948.241 598.89 951.065 597.905 953.462 596.457C953.57 597.69 953.57 598.931 953.462 600.164C953.462 602.017 952.13 602.77 950.585 603.233C948.295 604.218 945.578 604.797 942.967 605.492L943.233 605.029Z" fill="#34323D"/>
<path d="M832.315 655.009C834.873 650.665 919.633 594.894 924.801 587.944C930.298 595.561 933.554 604.804 934.143 614.465C934.732 624.125 932.628 633.754 928.104 642.094C928.104 642.094 880.583 702.615 855.863 708.001" fill="#303179"/>
<path d="M891.397 1246.38L910.576 1253.85C911.152 1255.74 912.165 1257.43 913.518 1258.77C914.871 1260.11 916.518 1261.05 918.301 1261.49C918.975 1262.37 919.923 1262.95 920.965 1263.11C928.73 1263.72 936.518 1262.35 943.714 1259.12C952.877 1255.99 988.678 1241.11 978.768 1269.02C972.216 1274 964.917 1278.35 958.258 1282.75C954.475 1285.24 950.746 1287.73 946.857 1290.04C944.803 1291.56 942.536 1292.69 940.144 1293.4C934.817 1294.27 922.51 1290.04 922.19 1291.49C921.871 1292.94 920.699 1303.65 920.699 1303.65C920.699 1303.65 888.094 1317.21 886.656 1293.46C886.496 1290.33 891.397 1246.38 891.397 1246.38Z" fill="#E55600"/>
<path d="M864.44 1033.31C860.444 963.289 858.26 892.807 844.621 824.004C844.035 806.108 833.38 817.518 833.966 810.452C839.773 752.827 916.969 821.398 916.969 821.398C920.112 824.178 920.485 841.842 921.124 845.838C924.676 867.961 927.659 890.162 930.075 912.44C942.861 1024.91 938.119 1136.86 932.898 1249.68C916.489 1267.92 905.781 1273.36 879.357 1261.61C874.029 1187.77 869.075 1113.93 864.706 1039.97L864.44 1033.31Z" fill="#303179"/>
<path d="M820.435 768.754C817.459 734.103 816.765 699.265 818.357 664.507C818.943 655.414 821.234 633.059 829.598 627.789C847.978 616.206 873.55 626.573 889.053 638.967C909.724 655.53 921.657 809.583 921.711 847.46C893.262 859.68 856.076 864.313 826.988 851.224C824.431 850.066 823.845 812.248 823.472 807.556C822.726 794.584 821.66 781.611 820.435 768.754Z" fill="#303179"/>
<path d="M879.624 718.252C880.498 729.152 884.431 739.498 890.892 747.888C897.352 756.278 906.028 762.309 915.744 765.163C915.744 767.306 916.384 780.626 916.543 782.537C893.315 776.746 876.214 744.835 873.923 718.02C873.444 714.198 879.038 714.256 879.624 718.252Z" fill="#34323D"/>
<path d="M880.263 561.593C882.074 562.519 890.918 605.666 880.582 628.658C870.247 651.65 836.577 618.87 830.291 598.484C824.005 578.098 846.22 544.16 880.263 561.593Z" fill="#FCBF81"/>
<path d="M879.038 567.037C878.368 570.74 876.722 574.151 874.301 576.856C871.879 579.56 868.787 581.441 865.4 582.268C854.052 584.353 844.782 585.396 844.409 590.84C844.036 596.284 863.695 594.025 861.617 606.245C860.196 614.46 857.758 622.428 854.372 629.932C852.187 635.723 823.579 610.82 818.518 577.403C813.456 543.987 841.159 541.149 842.491 541.149C847.463 535.894 854.098 532.91 861.031 532.809C874.456 532.404 877.013 538.601 877.013 538.601C880.276 537.297 883.841 537.186 887.168 538.283C890.494 539.38 893.401 541.627 895.447 544.682C905.516 557.365 899.229 575.434 884.525 580.299L879.038 567.037Z" fill="#E55600"/>
<path d="M888.041 655.646C888.041 655.646 960.761 682.403 984.308 677.422C1006.88 671.09 1029.03 663.138 1050.64 653.619C1069.55 665.202 1075.3 690.974 1068.86 713.098C1041.21 724.217 959.056 755.549 929.915 746.862C894.647 736.379 855.33 720.8 855.33 720.8C855.33 720.8 817.185 693.464 888.041 655.646Z" fill="#303179"/>
<path d="M1475.29 979.795V1027.23C1475.29 1028.93 1474.88 1030.6 1474.1 1032.08C1473.32 1033.56 1472.21 1034.8 1470.86 1035.67C1469.51 1036.54 1467.98 1037.01 1466.41 1037.04C1464.85 1037.08 1463.3 1036.67 1461.92 1035.86L1421.59 1012C1420.17 1011.14 1418.99 1009.9 1418.16 1008.38C1417.34 1006.86 1416.9 1005.13 1416.9 1003.37V954.833C1416.91 953.115 1417.33 951.428 1418.12 949.941C1418.92 948.454 1420.05 947.219 1421.42 946.358C1422.79 945.497 1424.34 945.041 1425.92 945.034C1427.5 945.027 1429.06 945.471 1430.43 946.32L1470.76 971.513C1472.11 972.356 1473.23 973.56 1474.02 975.011C1474.82 976.461 1475.25 978.108 1475.29 979.795Z" fill="#EF7F6C"/>
<path d="M1393.78 930.915V978.347C1393.78 980.05 1393.37 981.723 1392.59 983.203C1391.81 984.682 1390.69 985.917 1389.35 986.786C1388 987.656 1386.47 988.13 1384.9 988.164C1383.33 988.197 1381.79 987.788 1380.41 986.976L1340.08 962.884C1338.66 962.033 1337.47 960.784 1336.65 959.266C1335.82 957.748 1335.39 956.017 1335.39 954.254V905.722C1335.4 904.003 1335.82 902.317 1336.61 900.83C1337.41 899.343 1338.54 898.107 1339.91 897.247C1341.28 896.386 1342.83 895.929 1344.41 895.922C1345.99 895.916 1347.55 896.359 1348.92 897.208L1389.25 922.401C1390.63 923.264 1391.77 924.505 1392.56 925.999C1393.36 927.494 1393.78 929.189 1393.78 930.915V930.915Z" fill="#06577A"/>
<path d="M1304.28 876.185V923.617C1304.27 925.321 1303.86 926.994 1303.09 928.473C1302.31 929.953 1301.19 931.187 1299.84 932.057C1298.5 932.926 1296.97 933.401 1295.4 933.434C1293.83 933.468 1292.28 933.058 1290.91 932.247L1250.58 908.154C1249.16 907.304 1247.97 906.054 1247.15 904.537C1246.32 903.019 1245.89 901.288 1245.89 899.525V850.992C1245.9 849.274 1246.32 847.587 1247.11 846.1C1247.9 844.613 1249.04 843.378 1250.41 842.517C1251.78 841.656 1253.33 841.2 1254.91 841.193C1256.49 841.186 1258.05 841.63 1259.42 842.479L1299.75 867.672C1301.13 868.535 1302.27 869.776 1303.06 871.27C1303.86 872.764 1304.28 874.459 1304.28 876.185V876.185Z" fill="#22B573"/>
<path d="M1882.31 997.227C1882.31 997.227 1894.51 1111.09 1839.05 1133.15C1783.59 1155.22 1753.81 1097.82 1753.12 997.227" fill="#ED7966"/>
<path d="M1817.69 1037.83C1853.35 1037.83 1882.26 1019.65 1882.26 997.227C1882.26 974.805 1853.35 956.629 1817.69 956.629C1782.03 956.629 1753.12 974.805 1753.12 997.227C1753.12 1019.65 1782.03 1037.83 1817.69 1037.83Z" fill="#F2696A"/>
<path d="M1801.17 906.938C1801.17 906.938 1826.53 867.151 1815.45 839.641C1815.45 839.641 1806.34 821.977 1793.4 819.139C1793.4 819.139 1794.68 856.842 1781.78 852.035C1768.89 847.228 1781.78 812.537 1781.78 812.537C1781.78 812.537 1768.2 792.556 1753.33 793.194C1738.47 793.831 1753.33 828.464 1743 822.73C1732.66 816.997 1742.36 787.518 1730.75 783.985C1720.11 781.272 1709.33 779.337 1698.46 778.194C1698.46 778.194 1687.49 812.595 1698.46 817.518C1709.44 822.44 1725.58 824.12 1717.85 831.707C1710.13 839.294 1688.13 830.549 1688.13 830.549C1688.13 830.549 1686.74 849.892 1694.2 858.29C1701.66 866.687 1745.61 848.155 1737.83 864.776C1730.05 881.398 1701.02 873.058 1701.02 873.058C1701.02 873.058 1715.88 896.224 1733.3 906.648C1750.72 917.073 1801.17 906.938 1801.17 906.938Z" fill="#8CCC00"/>
<path d="M1795.37 1006.49C1795.37 1006.49 1813.69 986.86 1810.07 969.949C1808.23 963.963 1804.44 958.916 1799.42 955.76C1799.42 955.76 1796.43 977.304 1789.56 973.135C1782.69 968.965 1793.45 950.722 1793.45 950.722C1793.45 950.722 1787.7 937.807 1779.23 936.417C1770.75 935.027 1775.76 956.455 1770.43 951.996C1765.11 947.536 1773.52 931.899 1767.29 928.83C1761.51 926.083 1755.57 923.761 1749.5 921.88C1749.5 921.88 1739.91 940.123 1745.66 944.235C1751.42 948.347 1760.42 951.127 1755.25 954.544C1750.08 957.961 1738.47 950.432 1738.47 950.432C1738.47 950.432 1735.81 961.262 1739.22 966.88C1742.63 972.498 1769.37 966.88 1763.35 975.625C1757.33 984.37 1741.61 976.088 1741.61 976.088C1745.25 984.657 1750.35 992.399 1756.64 998.907C1765.59 1006.67 1795.37 1006.49 1795.37 1006.49Z" fill="#8CCC00"/>
<path d="M1862.6 964.042C1862.6 964.042 1907.08 965.895 1922.48 940.876C1922.48 940.876 1931.27 923.038 1926.53 909.66C1926.53 909.66 1897.97 931.088 1894.57 916.668C1891.16 902.247 1925.2 895.471 1925.2 895.471C1925.2 895.471 1933.4 872.305 1925.2 859.043C1916.99 845.78 1897.82 877.981 1896.75 865.413C1895.68 852.846 1923.76 845.896 1920.19 833.328C1916.53 822.137 1912.19 811.224 1907.19 800.665C1907.19 800.665 1874.59 809.062 1876.66 821.803C1878.74 834.545 1886.15 850.24 1876.08 847.17C1866.01 844.101 1861 819.313 1861 819.313C1861 819.313 1845.02 828.464 1842.78 839.815C1840.54 851.166 1878.26 881.513 1861.22 883.309C1844.17 885.104 1835 854.004 1835 854.004C1835 854.004 1825.09 880.008 1826.27 901.668C1827.44 923.328 1862.6 964.042 1862.6 964.042Z" fill="#8CCC00"/>
<path d="M1708.1 793.657L1722.33 806.861C1721.85 801.36 1721.26 795.916 1720.46 790.472C1720.04 787.576 1724.09 786.36 1724.51 789.255C1725.58 796.553 1726.38 803.869 1726.91 811.205C1739.38 823.078 1751.73 835.529 1763.3 848.734C1764.28 839.469 1764.53 830.13 1764.04 820.819C1764.04 817.865 1768.09 817.865 1768.25 820.819C1768.8 831.59 1768.39 842.392 1767.02 853.077C1774.37 861.706 1781.28 870.774 1787.7 880.239C1794.91 869.383 1799.83 856.922 1802.08 843.753C1802.56 840.857 1806.61 842.074 1806.13 844.969C1803.72 858.984 1798.4 872.216 1790.57 883.656C1790.45 883.811 1790.3 883.948 1790.15 884.062C1809.63 912.314 1820.87 946.265 1822.43 981.532C1822.43 984.486 1818.33 984.486 1818.22 981.532C1816.72 947.519 1805.95 914.759 1787.27 887.421C1770.31 892.409 1752.71 894.365 1735.17 893.212C1732.5 893.212 1732.45 888.463 1735.17 888.637C1751.8 889.81 1768.5 888.129 1784.66 883.656C1775.74 870.574 1765.95 858.224 1755.36 846.707H1754.98C1745.18 847.633 1735.38 848.618 1725.52 848.965C1719.35 849.929 1713.05 849.13 1707.25 846.649C1704.85 845.317 1706.98 841.379 1709.38 842.711C1716.15 846.417 1725.63 844.448 1732.93 843.985C1739.16 843.579 1745.4 843 1751.63 842.421C1736.66 826.263 1720.57 811.263 1705.07 797.016C1703.04 794.989 1706.03 791.919 1708.1 793.657Z" fill="#06577A"/>
<path d="M1838.36 882.614C1838.21 882.03 1838.28 881.406 1838.56 880.88C1838.83 880.353 1839.29 879.966 1839.83 879.805C1840.36 879.644 1840.94 879.721 1841.42 880.019C1841.91 880.318 1842.26 880.814 1842.41 881.398C1846.96 898.255 1856.42 913.051 1869.37 923.559C1874.13 909.197 1878.48 894.66 1882.42 879.95C1872.27 868.965 1863.93 856.174 1857.75 842.131C1856.58 839.467 1860.2 837.151 1861.38 839.815C1867.1 852.627 1874.67 864.359 1883.8 874.564C1888.17 857.768 1892.06 840.741 1895.31 823.599C1895.84 820.703 1899.89 821.919 1899.36 824.815C1894.89 848.29 1889.36 871.455 1882.79 894.313C1890.72 892.624 1898.44 889.881 1905.75 886.147C1908.2 884.872 1910.34 888.811 1907.88 890.085C1899.43 894.454 1890.47 897.552 1881.25 899.293C1876.83 914.351 1871.82 929.177 1866.54 943.888C1879.12 943.456 1891.51 940.491 1903.09 935.142C1905.54 933.984 1907.67 937.922 1905.22 939.081C1892.47 945.035 1878.77 948.241 1864.89 948.521C1858.14 966.822 1850.72 984.853 1842.62 1002.61C1841.4 1005.22 1837.77 1002.96 1839 1000.3C1849.83 976.705 1859.46 952.479 1867.82 927.729V927.729C1853.7 916.632 1843.34 900.771 1838.36 882.614V882.614Z" fill="#06577A"/>
<path d="M1762.23 941.745L1773.79 962.826C1775.21 960.761 1776.44 958.549 1777.47 956.223C1778.64 953.559 1782.26 955.876 1781.09 958.54C1779.77 961.511 1778.14 964.308 1776.24 966.88V966.88L1788.76 989.756C1790.16 988.29 1791.06 986.35 1791.32 984.254C1791.64 981.358 1795.85 981.358 1795.53 984.254C1795.15 987.912 1793.49 991.27 1790.89 993.636L1806.56 1022.25C1806.84 1022.77 1806.92 1023.39 1806.78 1023.98C1806.64 1024.56 1806.29 1025.07 1805.81 1025.37C1805.33 1025.68 1804.76 1025.77 1804.22 1025.62C1803.68 1025.46 1803.21 1025.08 1802.93 1024.56L1782.26 986.86C1778.79 986.918 1775.33 986.351 1772.03 985.181C1769.48 984.254 1770.59 979.853 1773.15 980.779C1775.26 981.501 1777.44 981.948 1779.65 982.111L1758.71 943.888C1758.59 943.402 1758.62 942.886 1758.8 942.421C1758.98 941.957 1759.3 941.571 1759.7 941.325C1760.11 941.078 1760.58 940.986 1761.03 941.062C1761.49 941.138 1761.91 941.378 1762.23 941.745V941.745Z" fill="#06577A"/>
<path d="M77.5154 1077.9L303.987 956.281L475.16 1069.27L253.802 1199.29C203.83 1163.91 125.996 1115.55 77.5154 1077.9Z" fill="#FAE5DF"/>
<path d="M486.454 756.823V1042.98C486.454 1042.98 233.451 1058.27 233.451 1042.98V756.823" fill="#ED7966"/>
<path d="M359.926 1103.38C429.805 1103.38 486.454 1075.25 486.454 1040.55C486.454 1005.84 429.805 977.71 359.926 977.71C290.046 977.71 233.397 1005.84 233.397 1040.55C233.397 1075.25 290.046 1103.38 359.926 1103.38Z" fill="#ED7966"/>
<path d="M359.926 819.66C429.805 819.66 486.454 791.527 486.454 756.823C486.454 722.119 429.805 693.986 359.926 693.986C290.046 693.986 233.397 722.119 233.397 756.823C233.397 791.527 290.046 819.66 359.926 819.66Z" fill="#ED7966"/>
<path d="M438.772 805.703L437.92 806.224C433.072 808.078 428.171 809.757 423.163 811.089L457.578 497.713C457.578 497.713 464.771 493.427 475.212 501.246L439.891 805.124L438.772 805.703Z" fill="#F78B72"/>
<path d="M399.562 815.375L388.907 521.226C388.907 521.226 395.407 515.724 406.808 521.689L415.545 812.942C410.264 814.082 404.928 814.895 399.562 815.375V815.375Z" fill="#F78B72"/>
<path d="M359.926 819.66L324.977 513.002L254.548 553.542L283.05 811.147C307.993 819.005 334.038 821.889 359.926 819.66Z" fill="#FCB749"/>
</svg>
