<svg width="300" height="300" viewBox="0 0 500 500" fill="none" xmlns="http://www.w3.org/2000/svg">
<g clip-path="url(#clip0_24_9)">
<rect width="500" height="500" fill="#FAE5DF"/>
<path d="M445.736 0H54.2636C24.2946 0 0 24.2946 0 54.2636V445.736C0 475.705 24.2946 500 54.2636 500H445.736C475.705 500 500 475.705 500 445.736V54.2636C500 24.2946 475.705 0 445.736 0Z" fill="#FAE5DF"/>
<path fill-rule="evenodd" clip-rule="evenodd" d="M162.792 205.426H215.117V195.736C215.117 180.232 213.179 160.853 215.117 145.349C217.055 108.527 236.435 85.2712 286.823 83.3333L337.21 85.2712V139.535C315.892 139.535 279.071 131.783 275.195 158.915V205.426H333.334L327.52 265.504H275.195V416.667H215.117V265.504L162.792 263.566V205.426Z" fill="#ED7966"/>
<path fill-rule="evenodd" clip-rule="evenodd" d="M500.002 248.063L337.211 85.272V139.536C315.893 139.536 279.072 131.784 275.196 158.915V205.427H333.335L327.521 265.505H275.196V416.667H215.118L298.451 500.001H445.738L500.002 445.737V248.063Z" fill="#FAE5DF"/>
</g>
<defs>
<clipPath id="clip0_24_9">
<rect width="500" height="500" fill="white"/>
</clipPath>
</defs>
</svg>
