<svg width="300" height="300" viewBox="0 0 500 500" fill="none" xmlns="http://www.w3.org/2000/svg">
<rect width="500" height="500" fill="#FAE5DF"/>
<path d="M249.999 38.7708C133.597 38.7708 38.8945 133.528 38.8945 250C38.8945 366.476 133.597 461.229 249.999 461.229C366.404 461.229 461.11 366.476 461.11 250C461.106 133.528 366.4 38.7708 249.999 38.7708ZM249.999 440.396C145.076 440.396 59.7159 354.986 59.7159 250C59.7159 145.017 145.076 59.6042 249.999 59.6042C354.921 59.6042 440.288 145.017 440.288 250C440.285 354.986 354.921 440.396 249.999 440.396Z" fill="#ED7966"/>
<path d="M344.274 181.181C349.125 178.674 360.744 171.226 366.22 155.24C366.22 155.24 353.022 164.788 335.06 165.913L334.734 166.094C325.545 156.059 312.334 149.764 297.645 149.764C269.855 149.764 247.33 172.306 247.33 200.111C247.33 204.33 247.854 208.427 248.836 212.344L248.593 211.979C248.593 211.979 194.7 215.069 143.893 159.455C143.893 159.455 121.43 197.653 159.891 226.865C151.468 228.267 136.595 220.684 136.595 220.684C136.595 220.684 137.435 260.844 177.294 270.677C170.839 272.365 158.766 272.92 154.838 271.24C154.838 271.24 160.73 301.851 201.436 307.191C191.05 313.09 171.682 331.062 127.888 327.691C127.888 327.691 159.335 353.528 217.722 349.882C276.108 346.236 318.497 306.906 335.619 265.34C352.741 223.774 347.977 200.108 347.977 200.108C347.977 200.108 362.284 192.594 372.119 174.622C367.576 175.983 350.729 180.101 344.458 181.625C344.395 181.479 344.333 181.33 344.274 181.181Z" fill="#ED7966"/>
</svg>
